M48
; DRILL file {KiCad (5.1.6-0-10_14)} date Sunday, January 10, 2021 at 06:20:24 PM
; FORMAT={-:-/ absolute / inch / decimal}
; #@! TF.CreationDate,2021-01-10T18:20:24+01:00
; #@! TF.GenerationSoftware,Kicad,Pcbnew,(5.1.6-0-10_14)
; #@! TF.FileFunction,Plated,1,2,PTH
FMAT,2
INCH
T1C0.0118
T2C0.0236
T3C0.0335
T4C0.0354
T5C0.0362
T6C0.0394
T7C0.0400
T8C0.0917
%
G90
G05
T1
X6.25Y-4.41
X6.2501Y-5.1684
X6.2706Y-5.2486
X6.29Y-5.5475
X6.3859Y-5.521
X6.4045Y-4.6534
X6.5675Y-4.615
X6.5675Y-4.875
X6.5703Y-5.3773
X6.5987Y-5.0121
X6.6295Y-4.3573
X6.6684Y-5.1092
X6.6686Y-5.0502
X6.715Y-4.765
X6.715Y-5.0125
X6.7267Y-5.2221
X6.7325Y-5.6975
X6.7781Y-4.7191
X6.7955Y-4.747
X6.806Y-4.6522
X6.8075Y-4.9175
X6.8519Y-4.5555
X6.8564Y-4.6484
X6.8625Y-5.435
X6.8942Y-5.1811
X6.8947Y-5.0783
X6.925Y-4.4025
X6.935Y-5.0725
X7.006Y-4.9997
X7.0332Y-4.514
X7.0425Y-4.94
X7.064Y-5.6974
X7.0721Y-4.8738
X7.0764Y-4.974
X7.0969Y-5.1035
X7.1007Y-5.2282
X7.115Y-5.185
X7.125Y-5.46
X7.1703Y-4.8738
X7.2359Y-4.9595
X7.2361Y-5.117
X7.2772Y-4.6844
X7.285Y-5.365
X7.2928Y-4.7736
X7.3019Y-4.9365
X7.3564Y-4.7405
X7.3673Y-5.3222
X7.3696Y-5.0747
X7.3777Y-5.1089
X7.3782Y-5.1705
X7.3976Y-5.2205
X7.405Y-4.5875
X7.4356Y-5.2171
X7.4612Y-5.344
X7.4846Y-5.0581
X7.4935Y-5.4011
X7.5064Y-5.3687
X7.5097Y-4.7405
X7.52Y-4.6125
X7.5464Y-4.4147
X7.555Y-5.3425
X7.5692Y-4.9406
X7.6325Y-5.2375
X7.6375Y-4.865
X7.89Y-5.1225
X8.1975Y-5.7325
X8.2421Y-4.6976
X8.3194Y-5.5041
X8.3622Y-5.6316
X8.5175Y-5.4975
T3
X8.8932Y-5.315
X8.8932Y-5.5118
T4
X8.1201Y-4.3898
X8.2185Y-4.3898
X8.3169Y-4.3898
X8.4154Y-4.3898
T5
X8.5827Y-5.3642
X8.5827Y-5.4626
X8.6614Y-5.3642
X8.6614Y-5.4626
T6
X6.3759Y-4.7652
X6.4759Y-4.7652
X7.5969Y-4.0551
X7.6969Y-4.0551
X6.5898Y-5.7874
X6.6898Y-5.7874
X6.7898Y-5.7874
X6.8898Y-5.7874
X8.8Y-4.7731
X8.8Y-4.97
X7.869Y-4.6852
X7.869Y-4.882
X6.5945Y-4.0551
X6.6945Y-4.0551
X6.7945Y-4.0551
X6.8945Y-4.0551
X6.9945Y-4.0551
X6.3759Y-4.9916
X6.4759Y-4.9916
X6.5945Y-4.311
X6.6945Y-4.311
X6.7945Y-4.311
X6.8945Y-4.311
X8.1677Y-5.2559
X8.2677Y-5.2559
X8.3677Y-5.2559
X7.83Y-4.2631
X7.83Y-4.46
T7
X6.0417Y-4.1213
X6.0417Y-4.2213
X6.0417Y-4.3213
X6.0417Y-4.4213
X6.0417Y-4.5213
X6.0417Y-4.6213
X6.0417Y-4.7213
X6.0417Y-4.8213
X6.0417Y-4.9213
X6.0417Y-5.0213
X6.0417Y-5.1213
X6.0417Y-5.2213
X6.0417Y-5.3213
X6.0417Y-5.4213
X6.0417Y-5.5213
X6.0417Y-5.6213
X6.0417Y-5.7213
X6.1417Y-4.1213
X6.1417Y-4.2213
X6.1417Y-4.3213
X6.1417Y-4.4213
X6.1417Y-4.5213
X6.1417Y-4.6213
X6.1417Y-4.7213
X6.1417Y-4.8213
X6.1417Y-4.9213
X6.1417Y-5.0213
X6.1417Y-5.1213
X6.1417Y-5.2213
X6.1417Y-5.3213
X6.1417Y-5.4213
X6.1417Y-5.5213
X6.1417Y-5.6213
X6.1417Y-5.7213
T8
X8.7681Y-5.1764
X8.7681Y-5.6504
T2
G00X8.9857Y-5.2756
M15
G01X9.0133Y-5.2756
M16
G05
G00X9.0133Y-5.5512
M15
G01X8.9857Y-5.5512
M16
G05
T6
G00X8.622Y-4.5079
M15
G01X8.622Y-4.4291
M16
G05
G00X8.7795Y-4.2835
M15
G01X8.7008Y-4.2835
M16
G05
G00X8.8583Y-4.5079
M15
G01X8.8583Y-4.4291
M16
G05
T0
M30
