M48
; DRILL file {KiCad (5.1.6-0-10_14)} date Sunday, January 10, 2021 at 01:20:23 PM
; FORMAT={-:-/ absolute / inch / decimal}
; #@! TF.CreationDate,2021-01-10T13:20:23+01:00
; #@! TF.GenerationSoftware,Kicad,Pcbnew,(5.1.6-0-10_14)
; #@! TF.FileFunction,Plated,1,2,PTH
FMAT,2
INCH
T1C0.0118
T2C0.0197
T3C0.0236
T4C0.0335
T5C0.0354
T6C0.0362
T7C0.0394
T8C0.0400
T9C0.0917
%
G90
G05
T1
X6.2956Y-5.358
X6.3064Y-4.4581
X6.3487Y-4.6584
X6.3663Y-4.937
X6.3768Y-4.5385
X6.3804Y-5.383
X6.4666Y-5.2314
X6.54Y-5.6
X6.5473Y-5.3279
X6.56Y-5.2
X6.5701Y-4.7441
X6.58Y-5.04
X6.6273Y-4.9845
X6.6612Y-4.9039
X6.6696Y-5.253
X6.6718Y-5.2972
X6.6755Y-5.3592
X6.69Y-4.18
X6.75Y-5.62
X6.7755Y-4.7103
X6.7763Y-4.8315
X6.7944Y-5.3771
X6.7962Y-4.7348
X6.8Y-4.58
X6.9015Y-5.376
X6.9422Y-4.9598
X6.9599Y-4.7201
X7.0666Y-4.858
X7.073Y-5.0901
X7.0757Y-4.9738
X7.0907Y-5.0622
X7.0966Y-5.4434
X7.1Y-5.68
X7.103Y-4.8247
X7.1198Y-4.8763
X7.1362Y-4.7869
X7.17Y-5.24
X7.2128Y-5.6374
X7.2359Y-4.9536
X7.2369Y-5.1034
X7.2781Y-5.4426
X7.3202Y-5.418
X7.3267Y-5.3227
X7.335Y-5.3758
X7.3549Y-4.7348
X7.396Y-4.983
X7.3961Y-5.3562
X7.3974Y-5.1865
X7.4045Y-5.2203
X7.4366Y-5.2204
X7.4698Y-5.1772
X7.47Y-5.4
X7.4872Y-5.2207
X7.514Y-4.7328
X7.62Y-5.2831
X7.7201Y-4.2645
X7.8457Y-4.801
X8.2215Y-4.6964
X8.3198Y-5.4986
X8.3589Y-5.6313
X8.4903Y-5.5984
T2
X6.6231Y-4.6146
X6.6924Y-4.7208
T4
X8.8932Y-5.315
X8.8932Y-5.5118
T5
X8.1201Y-4.3898
X8.2185Y-4.3898
X8.3169Y-4.3898
X8.4154Y-4.3898
T6
X8.5827Y-5.3642
X8.5827Y-5.4626
X8.6614Y-5.3642
X8.6614Y-5.4626
T7
X7.83Y-4.2631
X7.83Y-4.46
X8.8Y-4.7731
X8.8Y-4.97
X6.5945Y-4.311
X6.6945Y-4.311
X6.7945Y-4.311
X6.8945Y-4.311
X7.869Y-4.6852
X7.869Y-4.882
X6.5945Y-4.0551
X6.6945Y-4.0551
X6.7945Y-4.0551
X6.8945Y-4.0551
X6.9945Y-4.0551
X6.3759Y-4.9916
X6.4759Y-4.9916
X7.5969Y-4.0551
X7.6969Y-4.0551
X6.5898Y-5.7874
X6.6898Y-5.7874
X6.7898Y-5.7874
X6.8898Y-5.7874
X6.3759Y-4.7652
X6.4759Y-4.7652
X8.1677Y-5.2559
X8.2677Y-5.2559
X8.3677Y-5.2559
T8
X6.0417Y-4.1213
X6.0417Y-4.2213
X6.0417Y-4.3213
X6.0417Y-4.4213
X6.0417Y-4.5213
X6.0417Y-4.6213
X6.0417Y-4.7213
X6.0417Y-4.8213
X6.0417Y-4.9213
X6.0417Y-5.0213
X6.0417Y-5.1213
X6.0417Y-5.2213
X6.0417Y-5.3213
X6.0417Y-5.4213
X6.0417Y-5.5213
X6.0417Y-5.6213
X6.0417Y-5.7213
X6.1417Y-4.1213
X6.1417Y-4.2213
X6.1417Y-4.3213
X6.1417Y-4.4213
X6.1417Y-4.5213
X6.1417Y-4.6213
X6.1417Y-4.7213
X6.1417Y-4.8213
X6.1417Y-4.9213
X6.1417Y-5.0213
X6.1417Y-5.1213
X6.1417Y-5.2213
X6.1417Y-5.3213
X6.1417Y-5.4213
X6.1417Y-5.5213
X6.1417Y-5.6213
X6.1417Y-5.7213
T9
X8.7681Y-5.1764
X8.7681Y-5.6504
T3
G00X8.9857Y-5.2756
M15
G01X9.0133Y-5.2756
M16
G05
G00X9.0133Y-5.5512
M15
G01X8.9857Y-5.5512
M16
G05
T7
G00X8.622Y-4.5079
M15
G01X8.622Y-4.4291
M16
G05
G00X8.7795Y-4.2835
M15
G01X8.7008Y-4.2835
M16
G05
G00X8.8583Y-4.5079
M15
G01X8.8583Y-4.4291
M16
G05
T0
M30
