M48
; DRILL file {KiCad (5.1.6-0-10_14)} date Wednesday, January 13, 2021 at 01:23:34 AM
; FORMAT={-:-/ absolute / inch / decimal}
; #@! TF.CreationDate,2021-01-13T01:23:34+01:00
; #@! TF.GenerationSoftware,Kicad,Pcbnew,(5.1.6-0-10_14)
; #@! TF.FileFunction,Plated,1,2,PTH
FMAT,2
INCH
T1C0.0118
T2C0.0197
T3C0.0236
T4C0.0335
T5C0.0354
T6C0.0362
T7C0.0394
T8C0.0400
T9C0.0917
%
G90
G05
T1
X6.2375Y-4.38
X6.2375Y-4.45
X6.29Y-5.265
X6.3275Y-4.9
X6.3931Y-5.137
X6.4002Y-4.6266
X6.413Y-4.824
X6.4742Y-5.2614
X6.5348Y-5.2367
X6.5705Y-5.1426
X6.658Y-4.6155
X6.6708Y-4.8053
X6.6795Y-4.8575
X6.7089Y-4.1426
X6.722Y-4.9755
X6.7275Y-5.6275
X6.7292Y-5.1962
X6.744Y-4.469
X6.7607Y-5.1997
X6.7675Y-4.753
X6.8105Y-5.2426
X6.8938Y-5.0785
X6.9155Y-4.4375
X6.9165Y-4.6735
X6.9339Y-5.1841
X7.0339Y-5.023
X7.0364Y-5.0925
X7.0567Y-5.662
X7.0775Y-4.6489
X7.0892Y-4.9774
X7.095Y-5.355
X7.1Y-5.245
X7.1063Y-4.9472
X7.109Y-4.64
X7.1175Y-5.641
X7.12Y-5.465
X7.1254Y-5.1171
X7.2045Y-4.6338
X7.22Y-5.645
X7.2366Y-4.9745
X7.2366Y-5.0497
X7.2614Y-4.7549
X7.2672Y-5.1251
X7.2835Y-5.195
X7.3055Y-4.6384
X7.3171Y-5.1499
X7.3313Y-4.9287
X7.3512Y-4.774
X7.3591Y-5.3402
X7.3905Y-4.585
X7.4049Y-5.3228
X7.41Y-4.7416
X7.4103Y-5.2207
X7.4449Y-5.3242
X7.445Y-5.2201
X7.4843Y-5.3222
X7.4932Y-5.194
X7.5254Y-4.7405
X7.5574Y-4.9478
X7.5655Y-5.338
X7.5822Y-4.9689
X7.6104Y-5.4286
X7.619Y-5.2792
X7.6831Y-4.933
X7.686Y-4.8645
X7.705Y-5.28
X7.7455Y-5.178
X7.775Y-4.8695
X7.78Y-4.9455
X7.7938Y-5.3529
X7.8304Y-4.506
X7.9306Y-4.1228
X8.044Y-5.243
X8.2Y-5.731
X8.2162Y-4.6966
X8.3181Y-5.5236
X8.3648Y-5.6315
X8.517Y-5.4925
X8.7375Y-5.4485
X8.8448Y-5.4646
T2
X6.2896Y-4.4642
X6.5003Y-5.1454
X6.5389Y-4.955
T4
X8.8932Y-5.315
X8.8932Y-5.5118
T5
X8.1201Y-4.3898
X8.2185Y-4.3898
X8.3169Y-4.3898
X8.4154Y-4.3898
T6
X8.5827Y-5.3642
X8.5827Y-5.4626
X8.6614Y-5.3642
X8.6614Y-5.4626
T7
X6.5898Y-5.7874
X6.6898Y-5.7874
X6.7898Y-5.7874
X6.8898Y-5.7874
X6.3759Y-4.9916
X6.4759Y-4.9916
X8.8Y-4.7731
X8.8Y-4.97
X6.3759Y-4.7652
X6.4759Y-4.7652
X7.845Y-4.6275
X7.845Y-4.7275
X7.845Y-4.8275
X7.845Y-4.9275
X7.845Y-5.0275
X7.845Y-5.1275
X7.845Y-5.2275
X7.845Y-5.3275
X7.945Y-4.6275
X7.945Y-4.7275
X7.945Y-4.8275
X7.945Y-4.9275
X7.945Y-5.0275
X7.945Y-5.1275
X7.945Y-5.2275
X7.945Y-5.3275
X8.1677Y-5.2559
X8.2677Y-5.2559
X8.3677Y-5.2559
X6.5945Y-4.311
X6.6945Y-4.311
X6.7945Y-4.311
X6.8945Y-4.311
X7.5969Y-4.0551
X7.6969Y-4.0551
X6.5945Y-4.0551
X6.6945Y-4.0551
X6.7945Y-4.0551
X6.8945Y-4.0551
X6.9945Y-4.0551
X7.82Y-4.2406
X7.82Y-4.4375
T8
X6.0417Y-4.1213
X6.0417Y-4.2213
X6.0417Y-4.3213
X6.0417Y-4.4213
X6.0417Y-4.5213
X6.0417Y-4.6213
X6.0417Y-4.7213
X6.0417Y-4.8213
X6.0417Y-4.9213
X6.0417Y-5.0213
X6.0417Y-5.1213
X6.0417Y-5.2213
X6.0417Y-5.3213
X6.0417Y-5.4213
X6.0417Y-5.5213
X6.0417Y-5.6213
X6.0417Y-5.7213
X6.1417Y-4.1213
X6.1417Y-4.2213
X6.1417Y-4.3213
X6.1417Y-4.4213
X6.1417Y-4.5213
X6.1417Y-4.6213
X6.1417Y-4.7213
X6.1417Y-4.8213
X6.1417Y-4.9213
X6.1417Y-5.0213
X6.1417Y-5.1213
X6.1417Y-5.2213
X6.1417Y-5.3213
X6.1417Y-5.4213
X6.1417Y-5.5213
X6.1417Y-5.6213
X6.1417Y-5.7213
T9
X8.7681Y-5.1764
X8.7681Y-5.6504
T3
G00X8.9857Y-5.2756
M15
G01X9.0133Y-5.2756
M16
G05
G00X9.0133Y-5.5512
M15
G01X8.9857Y-5.5512
M16
G05
T7
G00X8.622Y-4.5079
M15
G01X8.622Y-4.4291
M16
G05
G00X8.7795Y-4.2835
M15
G01X8.7008Y-4.2835
M16
G05
G00X8.8583Y-4.5079
M15
G01X8.8583Y-4.4291
M16
G05
T0
M30
