M48
; DRILL file {KiCad (5.1.6-0-10_14)} date Saturday, January 09, 2021 at 03:31:18 PM
; FORMAT={-:-/ absolute / inch / decimal}
; #@! TF.CreationDate,2021-01-09T15:31:18+01:00
; #@! TF.GenerationSoftware,Kicad,Pcbnew,(5.1.6-0-10_14)
; #@! TF.FileFunction,Plated,1,2,PTH
FMAT,2
INCH
T1C0.0118
T2C0.0197
T3C0.0236
T4C0.0335
T5C0.0354
T6C0.0362
T7C0.0394
T8C0.0400
T9C0.0917
%
G90
G05
T1
X6.46Y-5.26
X6.5663Y-4.6339
X6.5691Y-5.348
X6.59Y-4.51
X6.5987Y-4.6394
X6.65Y-4.41
X6.68Y-5.32
X6.6964Y-5.3661
X6.703Y-5.6833
X6.715Y-4.7162
X6.7651Y-4.7441
X6.795Y-4.7953
X6.7959Y-5.2612
X6.91Y-4.95
X6.94Y-4.87
X7.011Y-4.9395
X7.0659Y-5.2397
X7.067Y-5.186
X7.1026Y-5.3715
X7.2407Y-4.775
X7.2585Y-5.187
X7.32Y-5.63
X7.3316Y-4.896
X7.3566Y-5.366
X7.3794Y-4.7244
X7.3906Y-5.284
X7.4096Y-5.0749
X7.418Y-5.2392
X7.4779Y-5.1829
X7.48Y-5.56
X7.4967Y-5.3921
X7.5125Y-5.1769
X7.524Y-5.1431
X7.5591Y-4.6601
X7.5765Y-5.5328
X7.5879Y-5.4921
X7.61Y-5.42
X7.664Y-4.8226
X7.7309Y-5.2493
X7.75Y-5.35
X7.79Y-4.93
X7.833Y-5.0318
X8.2011Y-4.6573
X8.2582Y-5.4976
X8.439Y-5.6313
X8.5394Y-5.5341
T2
X6.6071Y-5.1046
X6.6336Y-5.4239
X6.6742Y-4.8422
X6.7276Y-5.4921
T4
X8.8932Y-5.315
X8.8932Y-5.5118
T5
X8.1201Y-4.3898
X8.2185Y-4.3898
X8.3169Y-4.3898
X8.4154Y-4.3898
T6
X8.5827Y-5.3642
X8.5827Y-5.4626
X8.6614Y-5.3642
X8.6614Y-5.4626
T7
X6.5945Y-4.311
X6.6945Y-4.311
X6.7945Y-4.311
X6.8945Y-4.311
X6.5898Y-5.7874
X6.6898Y-5.7874
X6.7898Y-5.7874
X6.8898Y-5.7874
X8.1677Y-5.2559
X8.2677Y-5.2559
X8.3677Y-5.2559
X6.4059Y-4.6752
X6.5059Y-4.6752
X6.4059Y-4.9016
X6.5059Y-4.9016
X6.5945Y-4.0551
X6.6945Y-4.0551
X6.7945Y-4.0551
X6.8945Y-4.0551
X6.9945Y-4.0551
X7.5969Y-4.0551
X7.6969Y-4.0551
T8
X6.0417Y-4.1213
X6.0417Y-4.2213
X6.0417Y-4.3213
X6.0417Y-4.4213
X6.0417Y-4.5213
X6.0417Y-4.6213
X6.0417Y-4.7213
X6.0417Y-4.8213
X6.0417Y-4.9213
X6.0417Y-5.0213
X6.0417Y-5.1213
X6.0417Y-5.2213
X6.0417Y-5.3213
X6.0417Y-5.4213
X6.0417Y-5.5213
X6.0417Y-5.6213
X6.0417Y-5.7213
X6.1417Y-4.1213
X6.1417Y-4.2213
X6.1417Y-4.3213
X6.1417Y-4.4213
X6.1417Y-4.5213
X6.1417Y-4.6213
X6.1417Y-4.7213
X6.1417Y-4.8213
X6.1417Y-4.9213
X6.1417Y-5.0213
X6.1417Y-5.1213
X6.1417Y-5.2213
X6.1417Y-5.3213
X6.1417Y-5.4213
X6.1417Y-5.5213
X6.1417Y-5.6213
X6.1417Y-5.7213
T9
X8.7681Y-5.1764
X8.7681Y-5.6504
T3
G00X8.9857Y-5.2756
M15
G01X9.0133Y-5.2756
M16
G05
G00X9.0133Y-5.5512
M15
G01X8.9857Y-5.5512
M16
G05
T7
G00X8.622Y-4.5079
M15
G01X8.622Y-4.4291
M16
G05
G00X8.7795Y-4.2835
M15
G01X8.7008Y-4.2835
M16
G05
G00X8.8583Y-4.5079
M15
G01X8.8583Y-4.4291
M16
G05
T0
M30
