G04 #@! TF.GenerationSoftware,KiCad,Pcbnew,(5.1.6-0-10_14)*
G04 #@! TF.CreationDate,2021-01-13T01:23:31+01:00*
G04 #@! TF.ProjectId,Greaseweazle_F7_Plus_V2,47726561-7365-4776-9561-7a6c655f4637,rev?*
G04 #@! TF.SameCoordinates,Original*
G04 #@! TF.FileFunction,Paste,Top*
G04 #@! TF.FilePolarity,Positive*
%FSLAX46Y46*%
G04 Gerber Fmt 4.6, Leading zero omitted, Abs format (unit mm)*
G04 Created by KiCad (PCBNEW (5.1.6-0-10_14)) date 2021-01-13 01:23:31*
%MOMM*%
%LPD*%
G01*
G04 APERTURE LIST*
%ADD10R,3.050000X2.750000*%
%ADD11R,2.200000X1.200000*%
%ADD12R,2.500000X1.900000*%
%ADD13R,1.060000X0.650000*%
%ADD14R,2.000000X2.400000*%
%ADD15R,1.900000X1.500000*%
%ADD16R,1.350000X0.400000*%
%ADD17R,0.900000X0.800000*%
G04 APERTURE END LIST*
G36*
G01*
X160833750Y-111194000D02*
X161746250Y-111194000D01*
G75*
G02*
X161990000Y-111437750I0J-243750D01*
G01*
X161990000Y-111925250D01*
G75*
G02*
X161746250Y-112169000I-243750J0D01*
G01*
X160833750Y-112169000D01*
G75*
G02*
X160590000Y-111925250I0J243750D01*
G01*
X160590000Y-111437750D01*
G75*
G02*
X160833750Y-111194000I243750J0D01*
G01*
G37*
G36*
G01*
X160833750Y-109319000D02*
X161746250Y-109319000D01*
G75*
G02*
X161990000Y-109562750I0J-243750D01*
G01*
X161990000Y-110050250D01*
G75*
G02*
X161746250Y-110294000I-243750J0D01*
G01*
X160833750Y-110294000D01*
G75*
G02*
X160590000Y-110050250I0J243750D01*
G01*
X160590000Y-109562750D01*
G75*
G02*
X160833750Y-109319000I243750J0D01*
G01*
G37*
G36*
G01*
X163373750Y-136848000D02*
X164286250Y-136848000D01*
G75*
G02*
X164530000Y-137091750I0J-243750D01*
G01*
X164530000Y-137579250D01*
G75*
G02*
X164286250Y-137823000I-243750J0D01*
G01*
X163373750Y-137823000D01*
G75*
G02*
X163130000Y-137579250I0J243750D01*
G01*
X163130000Y-137091750D01*
G75*
G02*
X163373750Y-136848000I243750J0D01*
G01*
G37*
G36*
G01*
X163373750Y-134973000D02*
X164286250Y-134973000D01*
G75*
G02*
X164530000Y-135216750I0J-243750D01*
G01*
X164530000Y-135704250D01*
G75*
G02*
X164286250Y-135948000I-243750J0D01*
G01*
X163373750Y-135948000D01*
G75*
G02*
X163130000Y-135704250I0J243750D01*
G01*
X163130000Y-135216750D01*
G75*
G02*
X163373750Y-134973000I243750J0D01*
G01*
G37*
G36*
G01*
X160833750Y-136848000D02*
X161746250Y-136848000D01*
G75*
G02*
X161990000Y-137091750I0J-243750D01*
G01*
X161990000Y-137579250D01*
G75*
G02*
X161746250Y-137823000I-243750J0D01*
G01*
X160833750Y-137823000D01*
G75*
G02*
X160590000Y-137579250I0J243750D01*
G01*
X160590000Y-137091750D01*
G75*
G02*
X160833750Y-136848000I243750J0D01*
G01*
G37*
G36*
G01*
X160833750Y-134973000D02*
X161746250Y-134973000D01*
G75*
G02*
X161990000Y-135216750I0J-243750D01*
G01*
X161990000Y-135704250D01*
G75*
G02*
X161746250Y-135948000I-243750J0D01*
G01*
X160833750Y-135948000D01*
G75*
G02*
X160590000Y-135704250I0J243750D01*
G01*
X160590000Y-135216750D01*
G75*
G02*
X160833750Y-134973000I243750J0D01*
G01*
G37*
G36*
G01*
X163373750Y-140658000D02*
X164286250Y-140658000D01*
G75*
G02*
X164530000Y-140901750I0J-243750D01*
G01*
X164530000Y-141389250D01*
G75*
G02*
X164286250Y-141633000I-243750J0D01*
G01*
X163373750Y-141633000D01*
G75*
G02*
X163130000Y-141389250I0J243750D01*
G01*
X163130000Y-140901750D01*
G75*
G02*
X163373750Y-140658000I243750J0D01*
G01*
G37*
G36*
G01*
X163373750Y-138783000D02*
X164286250Y-138783000D01*
G75*
G02*
X164530000Y-139026750I0J-243750D01*
G01*
X164530000Y-139514250D01*
G75*
G02*
X164286250Y-139758000I-243750J0D01*
G01*
X163373750Y-139758000D01*
G75*
G02*
X163130000Y-139514250I0J243750D01*
G01*
X163130000Y-139026750D01*
G75*
G02*
X163373750Y-138783000I243750J0D01*
G01*
G37*
G36*
G01*
X164286250Y-110294000D02*
X163373750Y-110294000D01*
G75*
G02*
X163130000Y-110050250I0J243750D01*
G01*
X163130000Y-109562750D01*
G75*
G02*
X163373750Y-109319000I243750J0D01*
G01*
X164286250Y-109319000D01*
G75*
G02*
X164530000Y-109562750I0J-243750D01*
G01*
X164530000Y-110050250D01*
G75*
G02*
X164286250Y-110294000I-243750J0D01*
G01*
G37*
G36*
G01*
X164286250Y-112169000D02*
X163373750Y-112169000D01*
G75*
G02*
X163130000Y-111925250I0J243750D01*
G01*
X163130000Y-111437750D01*
G75*
G02*
X163373750Y-111194000I243750J0D01*
G01*
X164286250Y-111194000D01*
G75*
G02*
X164530000Y-111437750I0J-243750D01*
G01*
X164530000Y-111925250D01*
G75*
G02*
X164286250Y-112169000I-243750J0D01*
G01*
G37*
D10*
X204553000Y-139953000D03*
X201203000Y-143003000D03*
X204553000Y-143003000D03*
X201203000Y-139953000D03*
D11*
X209178000Y-139198000D03*
X209178000Y-143758000D03*
G36*
G01*
X194258250Y-142806000D02*
X193345750Y-142806000D01*
G75*
G02*
X193102000Y-142562250I0J243750D01*
G01*
X193102000Y-142074750D01*
G75*
G02*
X193345750Y-141831000I243750J0D01*
G01*
X194258250Y-141831000D01*
G75*
G02*
X194502000Y-142074750I0J-243750D01*
G01*
X194502000Y-142562250D01*
G75*
G02*
X194258250Y-142806000I-243750J0D01*
G01*
G37*
G36*
G01*
X194258250Y-144681000D02*
X193345750Y-144681000D01*
G75*
G02*
X193102000Y-144437250I0J243750D01*
G01*
X193102000Y-143949750D01*
G75*
G02*
X193345750Y-143706000I243750J0D01*
G01*
X194258250Y-143706000D01*
G75*
G02*
X194502000Y-143949750I0J-243750D01*
G01*
X194502000Y-144437250D01*
G75*
G02*
X194258250Y-144681000I-243750J0D01*
G01*
G37*
G36*
G01*
X196012750Y-143706000D02*
X196925250Y-143706000D01*
G75*
G02*
X197169000Y-143949750I0J-243750D01*
G01*
X197169000Y-144437250D01*
G75*
G02*
X196925250Y-144681000I-243750J0D01*
G01*
X196012750Y-144681000D01*
G75*
G02*
X195769000Y-144437250I0J243750D01*
G01*
X195769000Y-143949750D01*
G75*
G02*
X196012750Y-143706000I243750J0D01*
G01*
G37*
G36*
G01*
X196012750Y-141831000D02*
X196925250Y-141831000D01*
G75*
G02*
X197169000Y-142074750I0J-243750D01*
G01*
X197169000Y-142562250D01*
G75*
G02*
X196925250Y-142806000I-243750J0D01*
G01*
X196012750Y-142806000D01*
G75*
G02*
X195769000Y-142562250I0J243750D01*
G01*
X195769000Y-142074750D01*
G75*
G02*
X196012750Y-141831000I243750J0D01*
G01*
G37*
G36*
G01*
X168875000Y-132278000D02*
X168875000Y-132478000D01*
G75*
G02*
X168775000Y-132578000I-100000J0D01*
G01*
X167500000Y-132578000D01*
G75*
G02*
X167400000Y-132478000I0J100000D01*
G01*
X167400000Y-132278000D01*
G75*
G02*
X167500000Y-132178000I100000J0D01*
G01*
X168775000Y-132178000D01*
G75*
G02*
X168875000Y-132278000I0J-100000D01*
G01*
G37*
G36*
G01*
X168875000Y-131628000D02*
X168875000Y-131828000D01*
G75*
G02*
X168775000Y-131928000I-100000J0D01*
G01*
X167500000Y-131928000D01*
G75*
G02*
X167400000Y-131828000I0J100000D01*
G01*
X167400000Y-131628000D01*
G75*
G02*
X167500000Y-131528000I100000J0D01*
G01*
X168775000Y-131528000D01*
G75*
G02*
X168875000Y-131628000I0J-100000D01*
G01*
G37*
G36*
G01*
X168875000Y-130978000D02*
X168875000Y-131178000D01*
G75*
G02*
X168775000Y-131278000I-100000J0D01*
G01*
X167500000Y-131278000D01*
G75*
G02*
X167400000Y-131178000I0J100000D01*
G01*
X167400000Y-130978000D01*
G75*
G02*
X167500000Y-130878000I100000J0D01*
G01*
X168775000Y-130878000D01*
G75*
G02*
X168875000Y-130978000I0J-100000D01*
G01*
G37*
G36*
G01*
X168875000Y-130328000D02*
X168875000Y-130528000D01*
G75*
G02*
X168775000Y-130628000I-100000J0D01*
G01*
X167500000Y-130628000D01*
G75*
G02*
X167400000Y-130528000I0J100000D01*
G01*
X167400000Y-130328000D01*
G75*
G02*
X167500000Y-130228000I100000J0D01*
G01*
X168775000Y-130228000D01*
G75*
G02*
X168875000Y-130328000I0J-100000D01*
G01*
G37*
G36*
G01*
X168875000Y-129678000D02*
X168875000Y-129878000D01*
G75*
G02*
X168775000Y-129978000I-100000J0D01*
G01*
X167500000Y-129978000D01*
G75*
G02*
X167400000Y-129878000I0J100000D01*
G01*
X167400000Y-129678000D01*
G75*
G02*
X167500000Y-129578000I100000J0D01*
G01*
X168775000Y-129578000D01*
G75*
G02*
X168875000Y-129678000I0J-100000D01*
G01*
G37*
G36*
G01*
X168875000Y-129028000D02*
X168875000Y-129228000D01*
G75*
G02*
X168775000Y-129328000I-100000J0D01*
G01*
X167500000Y-129328000D01*
G75*
G02*
X167400000Y-129228000I0J100000D01*
G01*
X167400000Y-129028000D01*
G75*
G02*
X167500000Y-128928000I100000J0D01*
G01*
X168775000Y-128928000D01*
G75*
G02*
X168875000Y-129028000I0J-100000D01*
G01*
G37*
G36*
G01*
X168875000Y-128378000D02*
X168875000Y-128578000D01*
G75*
G02*
X168775000Y-128678000I-100000J0D01*
G01*
X167500000Y-128678000D01*
G75*
G02*
X167400000Y-128578000I0J100000D01*
G01*
X167400000Y-128378000D01*
G75*
G02*
X167500000Y-128278000I100000J0D01*
G01*
X168775000Y-128278000D01*
G75*
G02*
X168875000Y-128378000I0J-100000D01*
G01*
G37*
G36*
G01*
X174600000Y-128378000D02*
X174600000Y-128578000D01*
G75*
G02*
X174500000Y-128678000I-100000J0D01*
G01*
X173225000Y-128678000D01*
G75*
G02*
X173125000Y-128578000I0J100000D01*
G01*
X173125000Y-128378000D01*
G75*
G02*
X173225000Y-128278000I100000J0D01*
G01*
X174500000Y-128278000D01*
G75*
G02*
X174600000Y-128378000I0J-100000D01*
G01*
G37*
G36*
G01*
X174600000Y-129028000D02*
X174600000Y-129228000D01*
G75*
G02*
X174500000Y-129328000I-100000J0D01*
G01*
X173225000Y-129328000D01*
G75*
G02*
X173125000Y-129228000I0J100000D01*
G01*
X173125000Y-129028000D01*
G75*
G02*
X173225000Y-128928000I100000J0D01*
G01*
X174500000Y-128928000D01*
G75*
G02*
X174600000Y-129028000I0J-100000D01*
G01*
G37*
G36*
G01*
X174600000Y-129678000D02*
X174600000Y-129878000D01*
G75*
G02*
X174500000Y-129978000I-100000J0D01*
G01*
X173225000Y-129978000D01*
G75*
G02*
X173125000Y-129878000I0J100000D01*
G01*
X173125000Y-129678000D01*
G75*
G02*
X173225000Y-129578000I100000J0D01*
G01*
X174500000Y-129578000D01*
G75*
G02*
X174600000Y-129678000I0J-100000D01*
G01*
G37*
G36*
G01*
X174600000Y-130328000D02*
X174600000Y-130528000D01*
G75*
G02*
X174500000Y-130628000I-100000J0D01*
G01*
X173225000Y-130628000D01*
G75*
G02*
X173125000Y-130528000I0J100000D01*
G01*
X173125000Y-130328000D01*
G75*
G02*
X173225000Y-130228000I100000J0D01*
G01*
X174500000Y-130228000D01*
G75*
G02*
X174600000Y-130328000I0J-100000D01*
G01*
G37*
G36*
G01*
X174600000Y-130978000D02*
X174600000Y-131178000D01*
G75*
G02*
X174500000Y-131278000I-100000J0D01*
G01*
X173225000Y-131278000D01*
G75*
G02*
X173125000Y-131178000I0J100000D01*
G01*
X173125000Y-130978000D01*
G75*
G02*
X173225000Y-130878000I100000J0D01*
G01*
X174500000Y-130878000D01*
G75*
G02*
X174600000Y-130978000I0J-100000D01*
G01*
G37*
G36*
G01*
X174600000Y-131628000D02*
X174600000Y-131828000D01*
G75*
G02*
X174500000Y-131928000I-100000J0D01*
G01*
X173225000Y-131928000D01*
G75*
G02*
X173125000Y-131828000I0J100000D01*
G01*
X173125000Y-131628000D01*
G75*
G02*
X173225000Y-131528000I100000J0D01*
G01*
X174500000Y-131528000D01*
G75*
G02*
X174600000Y-131628000I0J-100000D01*
G01*
G37*
G36*
G01*
X174600000Y-132278000D02*
X174600000Y-132478000D01*
G75*
G02*
X174500000Y-132578000I-100000J0D01*
G01*
X173225000Y-132578000D01*
G75*
G02*
X173125000Y-132478000I0J100000D01*
G01*
X173125000Y-132278000D01*
G75*
G02*
X173225000Y-132178000I100000J0D01*
G01*
X174500000Y-132178000D01*
G75*
G02*
X174600000Y-132278000I0J-100000D01*
G01*
G37*
G36*
G01*
X168875000Y-122604000D02*
X168875000Y-122804000D01*
G75*
G02*
X168775000Y-122904000I-100000J0D01*
G01*
X167500000Y-122904000D01*
G75*
G02*
X167400000Y-122804000I0J100000D01*
G01*
X167400000Y-122604000D01*
G75*
G02*
X167500000Y-122504000I100000J0D01*
G01*
X168775000Y-122504000D01*
G75*
G02*
X168875000Y-122604000I0J-100000D01*
G01*
G37*
G36*
G01*
X168875000Y-121954000D02*
X168875000Y-122154000D01*
G75*
G02*
X168775000Y-122254000I-100000J0D01*
G01*
X167500000Y-122254000D01*
G75*
G02*
X167400000Y-122154000I0J100000D01*
G01*
X167400000Y-121954000D01*
G75*
G02*
X167500000Y-121854000I100000J0D01*
G01*
X168775000Y-121854000D01*
G75*
G02*
X168875000Y-121954000I0J-100000D01*
G01*
G37*
G36*
G01*
X168875000Y-121304000D02*
X168875000Y-121504000D01*
G75*
G02*
X168775000Y-121604000I-100000J0D01*
G01*
X167500000Y-121604000D01*
G75*
G02*
X167400000Y-121504000I0J100000D01*
G01*
X167400000Y-121304000D01*
G75*
G02*
X167500000Y-121204000I100000J0D01*
G01*
X168775000Y-121204000D01*
G75*
G02*
X168875000Y-121304000I0J-100000D01*
G01*
G37*
G36*
G01*
X168875000Y-120654000D02*
X168875000Y-120854000D01*
G75*
G02*
X168775000Y-120954000I-100000J0D01*
G01*
X167500000Y-120954000D01*
G75*
G02*
X167400000Y-120854000I0J100000D01*
G01*
X167400000Y-120654000D01*
G75*
G02*
X167500000Y-120554000I100000J0D01*
G01*
X168775000Y-120554000D01*
G75*
G02*
X168875000Y-120654000I0J-100000D01*
G01*
G37*
G36*
G01*
X168875000Y-120004000D02*
X168875000Y-120204000D01*
G75*
G02*
X168775000Y-120304000I-100000J0D01*
G01*
X167500000Y-120304000D01*
G75*
G02*
X167400000Y-120204000I0J100000D01*
G01*
X167400000Y-120004000D01*
G75*
G02*
X167500000Y-119904000I100000J0D01*
G01*
X168775000Y-119904000D01*
G75*
G02*
X168875000Y-120004000I0J-100000D01*
G01*
G37*
G36*
G01*
X168875000Y-119354000D02*
X168875000Y-119554000D01*
G75*
G02*
X168775000Y-119654000I-100000J0D01*
G01*
X167500000Y-119654000D01*
G75*
G02*
X167400000Y-119554000I0J100000D01*
G01*
X167400000Y-119354000D01*
G75*
G02*
X167500000Y-119254000I100000J0D01*
G01*
X168775000Y-119254000D01*
G75*
G02*
X168875000Y-119354000I0J-100000D01*
G01*
G37*
G36*
G01*
X168875000Y-118704000D02*
X168875000Y-118904000D01*
G75*
G02*
X168775000Y-119004000I-100000J0D01*
G01*
X167500000Y-119004000D01*
G75*
G02*
X167400000Y-118904000I0J100000D01*
G01*
X167400000Y-118704000D01*
G75*
G02*
X167500000Y-118604000I100000J0D01*
G01*
X168775000Y-118604000D01*
G75*
G02*
X168875000Y-118704000I0J-100000D01*
G01*
G37*
G36*
G01*
X174600000Y-118704000D02*
X174600000Y-118904000D01*
G75*
G02*
X174500000Y-119004000I-100000J0D01*
G01*
X173225000Y-119004000D01*
G75*
G02*
X173125000Y-118904000I0J100000D01*
G01*
X173125000Y-118704000D01*
G75*
G02*
X173225000Y-118604000I100000J0D01*
G01*
X174500000Y-118604000D01*
G75*
G02*
X174600000Y-118704000I0J-100000D01*
G01*
G37*
G36*
G01*
X174600000Y-119354000D02*
X174600000Y-119554000D01*
G75*
G02*
X174500000Y-119654000I-100000J0D01*
G01*
X173225000Y-119654000D01*
G75*
G02*
X173125000Y-119554000I0J100000D01*
G01*
X173125000Y-119354000D01*
G75*
G02*
X173225000Y-119254000I100000J0D01*
G01*
X174500000Y-119254000D01*
G75*
G02*
X174600000Y-119354000I0J-100000D01*
G01*
G37*
G36*
G01*
X174600000Y-120004000D02*
X174600000Y-120204000D01*
G75*
G02*
X174500000Y-120304000I-100000J0D01*
G01*
X173225000Y-120304000D01*
G75*
G02*
X173125000Y-120204000I0J100000D01*
G01*
X173125000Y-120004000D01*
G75*
G02*
X173225000Y-119904000I100000J0D01*
G01*
X174500000Y-119904000D01*
G75*
G02*
X174600000Y-120004000I0J-100000D01*
G01*
G37*
G36*
G01*
X174600000Y-120654000D02*
X174600000Y-120854000D01*
G75*
G02*
X174500000Y-120954000I-100000J0D01*
G01*
X173225000Y-120954000D01*
G75*
G02*
X173125000Y-120854000I0J100000D01*
G01*
X173125000Y-120654000D01*
G75*
G02*
X173225000Y-120554000I100000J0D01*
G01*
X174500000Y-120554000D01*
G75*
G02*
X174600000Y-120654000I0J-100000D01*
G01*
G37*
G36*
G01*
X174600000Y-121304000D02*
X174600000Y-121504000D01*
G75*
G02*
X174500000Y-121604000I-100000J0D01*
G01*
X173225000Y-121604000D01*
G75*
G02*
X173125000Y-121504000I0J100000D01*
G01*
X173125000Y-121304000D01*
G75*
G02*
X173225000Y-121204000I100000J0D01*
G01*
X174500000Y-121204000D01*
G75*
G02*
X174600000Y-121304000I0J-100000D01*
G01*
G37*
G36*
G01*
X174600000Y-121954000D02*
X174600000Y-122154000D01*
G75*
G02*
X174500000Y-122254000I-100000J0D01*
G01*
X173225000Y-122254000D01*
G75*
G02*
X173125000Y-122154000I0J100000D01*
G01*
X173125000Y-121954000D01*
G75*
G02*
X173225000Y-121854000I100000J0D01*
G01*
X174500000Y-121854000D01*
G75*
G02*
X174600000Y-121954000I0J-100000D01*
G01*
G37*
G36*
G01*
X174600000Y-122604000D02*
X174600000Y-122804000D01*
G75*
G02*
X174500000Y-122904000I-100000J0D01*
G01*
X173225000Y-122904000D01*
G75*
G02*
X173125000Y-122804000I0J100000D01*
G01*
X173125000Y-122604000D01*
G75*
G02*
X173225000Y-122504000I100000J0D01*
G01*
X174500000Y-122504000D01*
G75*
G02*
X174600000Y-122604000I0J-100000D01*
G01*
G37*
G36*
G01*
X169730000Y-141051750D02*
X169730000Y-141964250D01*
G75*
G02*
X169486250Y-142208000I-243750J0D01*
G01*
X168998750Y-142208000D01*
G75*
G02*
X168755000Y-141964250I0J243750D01*
G01*
X168755000Y-141051750D01*
G75*
G02*
X168998750Y-140808000I243750J0D01*
G01*
X169486250Y-140808000D01*
G75*
G02*
X169730000Y-141051750I0J-243750D01*
G01*
G37*
G36*
G01*
X171605000Y-141051750D02*
X171605000Y-141964250D01*
G75*
G02*
X171361250Y-142208000I-243750J0D01*
G01*
X170873750Y-142208000D01*
G75*
G02*
X170630000Y-141964250I0J243750D01*
G01*
X170630000Y-141051750D01*
G75*
G02*
X170873750Y-140808000I243750J0D01*
G01*
X171361250Y-140808000D01*
G75*
G02*
X171605000Y-141051750I0J-243750D01*
G01*
G37*
G36*
G01*
X174694000Y-141964250D02*
X174694000Y-141051750D01*
G75*
G02*
X174937750Y-140808000I243750J0D01*
G01*
X175425250Y-140808000D01*
G75*
G02*
X175669000Y-141051750I0J-243750D01*
G01*
X175669000Y-141964250D01*
G75*
G02*
X175425250Y-142208000I-243750J0D01*
G01*
X174937750Y-142208000D01*
G75*
G02*
X174694000Y-141964250I0J243750D01*
G01*
G37*
G36*
G01*
X172819000Y-141964250D02*
X172819000Y-141051750D01*
G75*
G02*
X173062750Y-140808000I243750J0D01*
G01*
X173550250Y-140808000D01*
G75*
G02*
X173794000Y-141051750I0J-243750D01*
G01*
X173794000Y-141964250D01*
G75*
G02*
X173550250Y-142208000I-243750J0D01*
G01*
X173062750Y-142208000D01*
G75*
G02*
X172819000Y-141964250I0J243750D01*
G01*
G37*
G36*
G01*
X180906000Y-141275750D02*
X180906000Y-142188250D01*
G75*
G02*
X180662250Y-142432000I-243750J0D01*
G01*
X180174750Y-142432000D01*
G75*
G02*
X179931000Y-142188250I0J243750D01*
G01*
X179931000Y-141275750D01*
G75*
G02*
X180174750Y-141032000I243750J0D01*
G01*
X180662250Y-141032000D01*
G75*
G02*
X180906000Y-141275750I0J-243750D01*
G01*
G37*
G36*
G01*
X182781000Y-141275750D02*
X182781000Y-142188250D01*
G75*
G02*
X182537250Y-142432000I-243750J0D01*
G01*
X182049750Y-142432000D01*
G75*
G02*
X181806000Y-142188250I0J243750D01*
G01*
X181806000Y-141275750D01*
G75*
G02*
X182049750Y-141032000I243750J0D01*
G01*
X182537250Y-141032000D01*
G75*
G02*
X182781000Y-141275750I0J-243750D01*
G01*
G37*
G36*
G01*
X186378000Y-142188250D02*
X186378000Y-141275750D01*
G75*
G02*
X186621750Y-141032000I243750J0D01*
G01*
X187109250Y-141032000D01*
G75*
G02*
X187353000Y-141275750I0J-243750D01*
G01*
X187353000Y-142188250D01*
G75*
G02*
X187109250Y-142432000I-243750J0D01*
G01*
X186621750Y-142432000D01*
G75*
G02*
X186378000Y-142188250I0J243750D01*
G01*
G37*
G36*
G01*
X184503000Y-142188250D02*
X184503000Y-141275750D01*
G75*
G02*
X184746750Y-141032000I243750J0D01*
G01*
X185234250Y-141032000D01*
G75*
G02*
X185478000Y-141275750I0J-243750D01*
G01*
X185478000Y-142188250D01*
G75*
G02*
X185234250Y-142432000I-243750J0D01*
G01*
X184746750Y-142432000D01*
G75*
G02*
X184503000Y-142188250I0J243750D01*
G01*
G37*
G36*
G01*
X160833750Y-115004000D02*
X161746250Y-115004000D01*
G75*
G02*
X161990000Y-115247750I0J-243750D01*
G01*
X161990000Y-115735250D01*
G75*
G02*
X161746250Y-115979000I-243750J0D01*
G01*
X160833750Y-115979000D01*
G75*
G02*
X160590000Y-115735250I0J243750D01*
G01*
X160590000Y-115247750D01*
G75*
G02*
X160833750Y-115004000I243750J0D01*
G01*
G37*
G36*
G01*
X160833750Y-113129000D02*
X161746250Y-113129000D01*
G75*
G02*
X161990000Y-113372750I0J-243750D01*
G01*
X161990000Y-113860250D01*
G75*
G02*
X161746250Y-114104000I-243750J0D01*
G01*
X160833750Y-114104000D01*
G75*
G02*
X160590000Y-113860250I0J243750D01*
G01*
X160590000Y-113372750D01*
G75*
G02*
X160833750Y-113129000I243750J0D01*
G01*
G37*
G36*
G01*
X162872000Y-131305750D02*
X162872000Y-132218250D01*
G75*
G02*
X162628250Y-132462000I-243750J0D01*
G01*
X162140750Y-132462000D01*
G75*
G02*
X161897000Y-132218250I0J243750D01*
G01*
X161897000Y-131305750D01*
G75*
G02*
X162140750Y-131062000I243750J0D01*
G01*
X162628250Y-131062000D01*
G75*
G02*
X162872000Y-131305750I0J-243750D01*
G01*
G37*
G36*
G01*
X164747000Y-131305750D02*
X164747000Y-132218250D01*
G75*
G02*
X164503250Y-132462000I-243750J0D01*
G01*
X164015750Y-132462000D01*
G75*
G02*
X163772000Y-132218250I0J243750D01*
G01*
X163772000Y-131305750D01*
G75*
G02*
X164015750Y-131062000I243750J0D01*
G01*
X164503250Y-131062000D01*
G75*
G02*
X164747000Y-131305750I0J-243750D01*
G01*
G37*
G36*
G01*
X163373750Y-115004000D02*
X164286250Y-115004000D01*
G75*
G02*
X164530000Y-115247750I0J-243750D01*
G01*
X164530000Y-115735250D01*
G75*
G02*
X164286250Y-115979000I-243750J0D01*
G01*
X163373750Y-115979000D01*
G75*
G02*
X163130000Y-115735250I0J243750D01*
G01*
X163130000Y-115247750D01*
G75*
G02*
X163373750Y-115004000I243750J0D01*
G01*
G37*
G36*
G01*
X163373750Y-113129000D02*
X164286250Y-113129000D01*
G75*
G02*
X164530000Y-113372750I0J-243750D01*
G01*
X164530000Y-113860250D01*
G75*
G02*
X164286250Y-114104000I-243750J0D01*
G01*
X163373750Y-114104000D01*
G75*
G02*
X163130000Y-113860250I0J243750D01*
G01*
X163130000Y-113372750D01*
G75*
G02*
X163373750Y-113129000I243750J0D01*
G01*
G37*
G36*
G01*
X160833750Y-140658000D02*
X161746250Y-140658000D01*
G75*
G02*
X161990000Y-140901750I0J-243750D01*
G01*
X161990000Y-141389250D01*
G75*
G02*
X161746250Y-141633000I-243750J0D01*
G01*
X160833750Y-141633000D01*
G75*
G02*
X160590000Y-141389250I0J243750D01*
G01*
X160590000Y-140901750D01*
G75*
G02*
X160833750Y-140658000I243750J0D01*
G01*
G37*
G36*
G01*
X160833750Y-138783000D02*
X161746250Y-138783000D01*
G75*
G02*
X161990000Y-139026750I0J-243750D01*
G01*
X161990000Y-139514250D01*
G75*
G02*
X161746250Y-139758000I-243750J0D01*
G01*
X160833750Y-139758000D01*
G75*
G02*
X160590000Y-139514250I0J243750D01*
G01*
X160590000Y-139026750D01*
G75*
G02*
X160833750Y-138783000I243750J0D01*
G01*
G37*
G36*
G01*
X187650000Y-103243750D02*
X187650000Y-103756250D01*
G75*
G02*
X187431250Y-103975000I-218750J0D01*
G01*
X186993750Y-103975000D01*
G75*
G02*
X186775000Y-103756250I0J218750D01*
G01*
X186775000Y-103243750D01*
G75*
G02*
X186993750Y-103025000I218750J0D01*
G01*
X187431250Y-103025000D01*
G75*
G02*
X187650000Y-103243750I0J-218750D01*
G01*
G37*
G36*
G01*
X189225000Y-103243750D02*
X189225000Y-103756250D01*
G75*
G02*
X189006250Y-103975000I-218750J0D01*
G01*
X188568750Y-103975000D01*
G75*
G02*
X188350000Y-103756250I0J218750D01*
G01*
X188350000Y-103243750D01*
G75*
G02*
X188568750Y-103025000I218750J0D01*
G01*
X189006250Y-103025000D01*
G75*
G02*
X189225000Y-103243750I0J-218750D01*
G01*
G37*
G36*
G01*
X200050000Y-103043750D02*
X200050000Y-103956250D01*
G75*
G02*
X199806250Y-104200000I-243750J0D01*
G01*
X199318750Y-104200000D01*
G75*
G02*
X199075000Y-103956250I0J243750D01*
G01*
X199075000Y-103043750D01*
G75*
G02*
X199318750Y-102800000I243750J0D01*
G01*
X199806250Y-102800000D01*
G75*
G02*
X200050000Y-103043750I0J-243750D01*
G01*
G37*
G36*
G01*
X201925000Y-103043750D02*
X201925000Y-103956250D01*
G75*
G02*
X201681250Y-104200000I-243750J0D01*
G01*
X201193750Y-104200000D01*
G75*
G02*
X200950000Y-103956250I0J243750D01*
G01*
X200950000Y-103043750D01*
G75*
G02*
X201193750Y-102800000I243750J0D01*
G01*
X201681250Y-102800000D01*
G75*
G02*
X201925000Y-103043750I0J-243750D01*
G01*
G37*
G36*
G01*
X206850000Y-123256250D02*
X206850000Y-122743750D01*
G75*
G02*
X207068750Y-122525000I218750J0D01*
G01*
X207506250Y-122525000D01*
G75*
G02*
X207725000Y-122743750I0J-218750D01*
G01*
X207725000Y-123256250D01*
G75*
G02*
X207506250Y-123475000I-218750J0D01*
G01*
X207068750Y-123475000D01*
G75*
G02*
X206850000Y-123256250I0J218750D01*
G01*
G37*
G36*
G01*
X205275000Y-123256250D02*
X205275000Y-122743750D01*
G75*
G02*
X205493750Y-122525000I218750J0D01*
G01*
X205931250Y-122525000D01*
G75*
G02*
X206150000Y-122743750I0J-218750D01*
G01*
X206150000Y-123256250D01*
G75*
G02*
X205931250Y-123475000I-218750J0D01*
G01*
X205493750Y-123475000D01*
G75*
G02*
X205275000Y-123256250I0J218750D01*
G01*
G37*
G36*
G01*
X206150000Y-125243750D02*
X206150000Y-125756250D01*
G75*
G02*
X205931250Y-125975000I-218750J0D01*
G01*
X205493750Y-125975000D01*
G75*
G02*
X205275000Y-125756250I0J218750D01*
G01*
X205275000Y-125243750D01*
G75*
G02*
X205493750Y-125025000I218750J0D01*
G01*
X205931250Y-125025000D01*
G75*
G02*
X206150000Y-125243750I0J-218750D01*
G01*
G37*
G36*
G01*
X207725000Y-125243750D02*
X207725000Y-125756250D01*
G75*
G02*
X207506250Y-125975000I-218750J0D01*
G01*
X207068750Y-125975000D01*
G75*
G02*
X206850000Y-125756250I0J218750D01*
G01*
X206850000Y-125243750D01*
G75*
G02*
X207068750Y-125025000I218750J0D01*
G01*
X207506250Y-125025000D01*
G75*
G02*
X207725000Y-125243750I0J-218750D01*
G01*
G37*
D12*
X213250000Y-127800000D03*
X213250000Y-123700000D03*
G36*
G01*
X181706000Y-145036250D02*
X181706000Y-144523750D01*
G75*
G02*
X181924750Y-144305000I218750J0D01*
G01*
X182362250Y-144305000D01*
G75*
G02*
X182581000Y-144523750I0J-218750D01*
G01*
X182581000Y-145036250D01*
G75*
G02*
X182362250Y-145255000I-218750J0D01*
G01*
X181924750Y-145255000D01*
G75*
G02*
X181706000Y-145036250I0J218750D01*
G01*
G37*
G36*
G01*
X180131000Y-145036250D02*
X180131000Y-144523750D01*
G75*
G02*
X180349750Y-144305000I218750J0D01*
G01*
X180787250Y-144305000D01*
G75*
G02*
X181006000Y-144523750I0J-218750D01*
G01*
X181006000Y-145036250D01*
G75*
G02*
X180787250Y-145255000I-218750J0D01*
G01*
X180349750Y-145255000D01*
G75*
G02*
X180131000Y-145036250I0J218750D01*
G01*
G37*
G36*
G01*
X186278000Y-145014250D02*
X186278000Y-144501750D01*
G75*
G02*
X186496750Y-144283000I218750J0D01*
G01*
X186934250Y-144283000D01*
G75*
G02*
X187153000Y-144501750I0J-218750D01*
G01*
X187153000Y-145014250D01*
G75*
G02*
X186934250Y-145233000I-218750J0D01*
G01*
X186496750Y-145233000D01*
G75*
G02*
X186278000Y-145014250I0J218750D01*
G01*
G37*
G36*
G01*
X184703000Y-145014250D02*
X184703000Y-144501750D01*
G75*
G02*
X184921750Y-144283000I218750J0D01*
G01*
X185359250Y-144283000D01*
G75*
G02*
X185578000Y-144501750I0J-218750D01*
G01*
X185578000Y-145014250D01*
G75*
G02*
X185359250Y-145233000I-218750J0D01*
G01*
X184921750Y-145233000D01*
G75*
G02*
X184703000Y-145014250I0J218750D01*
G01*
G37*
G36*
G01*
X168592000Y-125394500D02*
X168592000Y-125049500D01*
G75*
G02*
X168739500Y-124902000I147500J0D01*
G01*
X169034500Y-124902000D01*
G75*
G02*
X169182000Y-125049500I0J-147500D01*
G01*
X169182000Y-125394500D01*
G75*
G02*
X169034500Y-125542000I-147500J0D01*
G01*
X168739500Y-125542000D01*
G75*
G02*
X168592000Y-125394500I0J147500D01*
G01*
G37*
G36*
G01*
X167622000Y-125394500D02*
X167622000Y-125049500D01*
G75*
G02*
X167769500Y-124902000I147500J0D01*
G01*
X168064500Y-124902000D01*
G75*
G02*
X168212000Y-125049500I0J-147500D01*
G01*
X168212000Y-125394500D01*
G75*
G02*
X168064500Y-125542000I-147500J0D01*
G01*
X167769500Y-125542000D01*
G75*
G02*
X167622000Y-125394500I0J147500D01*
G01*
G37*
G36*
G01*
X168592000Y-135046500D02*
X168592000Y-134701500D01*
G75*
G02*
X168739500Y-134554000I147500J0D01*
G01*
X169034500Y-134554000D01*
G75*
G02*
X169182000Y-134701500I0J-147500D01*
G01*
X169182000Y-135046500D01*
G75*
G02*
X169034500Y-135194000I-147500J0D01*
G01*
X168739500Y-135194000D01*
G75*
G02*
X168592000Y-135046500I0J147500D01*
G01*
G37*
G36*
G01*
X167622000Y-135046500D02*
X167622000Y-134701500D01*
G75*
G02*
X167769500Y-134554000I147500J0D01*
G01*
X168064500Y-134554000D01*
G75*
G02*
X168212000Y-134701500I0J-147500D01*
G01*
X168212000Y-135046500D01*
G75*
G02*
X168064500Y-135194000I-147500J0D01*
G01*
X167769500Y-135194000D01*
G75*
G02*
X167622000Y-135046500I0J147500D01*
G01*
G37*
G36*
G01*
X193629500Y-136842000D02*
X193974500Y-136842000D01*
G75*
G02*
X194122000Y-136989500I0J-147500D01*
G01*
X194122000Y-137284500D01*
G75*
G02*
X193974500Y-137432000I-147500J0D01*
G01*
X193629500Y-137432000D01*
G75*
G02*
X193482000Y-137284500I0J147500D01*
G01*
X193482000Y-136989500D01*
G75*
G02*
X193629500Y-136842000I147500J0D01*
G01*
G37*
G36*
G01*
X193629500Y-135872000D02*
X193974500Y-135872000D01*
G75*
G02*
X194122000Y-136019500I0J-147500D01*
G01*
X194122000Y-136314500D01*
G75*
G02*
X193974500Y-136462000I-147500J0D01*
G01*
X193629500Y-136462000D01*
G75*
G02*
X193482000Y-136314500I0J147500D01*
G01*
X193482000Y-136019500D01*
G75*
G02*
X193629500Y-135872000I147500J0D01*
G01*
G37*
G36*
G01*
X182707500Y-136842000D02*
X183052500Y-136842000D01*
G75*
G02*
X183200000Y-136989500I0J-147500D01*
G01*
X183200000Y-137284500D01*
G75*
G02*
X183052500Y-137432000I-147500J0D01*
G01*
X182707500Y-137432000D01*
G75*
G02*
X182560000Y-137284500I0J147500D01*
G01*
X182560000Y-136989500D01*
G75*
G02*
X182707500Y-136842000I147500J0D01*
G01*
G37*
G36*
G01*
X182707500Y-135872000D02*
X183052500Y-135872000D01*
G75*
G02*
X183200000Y-136019500I0J-147500D01*
G01*
X183200000Y-136314500D01*
G75*
G02*
X183052500Y-136462000I-147500J0D01*
G01*
X182707500Y-136462000D01*
G75*
G02*
X182560000Y-136314500I0J147500D01*
G01*
X182560000Y-136019500D01*
G75*
G02*
X182707500Y-135872000I147500J0D01*
G01*
G37*
G36*
G01*
X178000000Y-124049500D02*
X178000000Y-124394500D01*
G75*
G02*
X177852500Y-124542000I-147500J0D01*
G01*
X177557500Y-124542000D01*
G75*
G02*
X177410000Y-124394500I0J147500D01*
G01*
X177410000Y-124049500D01*
G75*
G02*
X177557500Y-123902000I147500J0D01*
G01*
X177852500Y-123902000D01*
G75*
G02*
X178000000Y-124049500I0J-147500D01*
G01*
G37*
G36*
G01*
X178970000Y-124049500D02*
X178970000Y-124394500D01*
G75*
G02*
X178822500Y-124542000I-147500J0D01*
G01*
X178527500Y-124542000D01*
G75*
G02*
X178380000Y-124394500I0J147500D01*
G01*
X178380000Y-124049500D01*
G75*
G02*
X178527500Y-123902000I147500J0D01*
G01*
X178822500Y-123902000D01*
G75*
G02*
X178970000Y-124049500I0J-147500D01*
G01*
G37*
G36*
G01*
X192880000Y-119156500D02*
X192880000Y-118811500D01*
G75*
G02*
X193027500Y-118664000I147500J0D01*
G01*
X193322500Y-118664000D01*
G75*
G02*
X193470000Y-118811500I0J-147500D01*
G01*
X193470000Y-119156500D01*
G75*
G02*
X193322500Y-119304000I-147500J0D01*
G01*
X193027500Y-119304000D01*
G75*
G02*
X192880000Y-119156500I0J147500D01*
G01*
G37*
G36*
G01*
X191910000Y-119156500D02*
X191910000Y-118811500D01*
G75*
G02*
X192057500Y-118664000I147500J0D01*
G01*
X192352500Y-118664000D01*
G75*
G02*
X192500000Y-118811500I0J-147500D01*
G01*
X192500000Y-119156500D01*
G75*
G02*
X192352500Y-119304000I-147500J0D01*
G01*
X192057500Y-119304000D01*
G75*
G02*
X191910000Y-119156500I0J147500D01*
G01*
G37*
G36*
G01*
X186610000Y-110902500D02*
X186610000Y-110557500D01*
G75*
G02*
X186757500Y-110410000I147500J0D01*
G01*
X187052500Y-110410000D01*
G75*
G02*
X187200000Y-110557500I0J-147500D01*
G01*
X187200000Y-110902500D01*
G75*
G02*
X187052500Y-111050000I-147500J0D01*
G01*
X186757500Y-111050000D01*
G75*
G02*
X186610000Y-110902500I0J147500D01*
G01*
G37*
G36*
G01*
X185640000Y-110902500D02*
X185640000Y-110557500D01*
G75*
G02*
X185787500Y-110410000I147500J0D01*
G01*
X186082500Y-110410000D01*
G75*
G02*
X186230000Y-110557500I0J-147500D01*
G01*
X186230000Y-110902500D01*
G75*
G02*
X186082500Y-111050000I-147500J0D01*
G01*
X185787500Y-111050000D01*
G75*
G02*
X185640000Y-110902500I0J147500D01*
G01*
G37*
G36*
G01*
X190230000Y-110557500D02*
X190230000Y-110902500D01*
G75*
G02*
X190082500Y-111050000I-147500J0D01*
G01*
X189787500Y-111050000D01*
G75*
G02*
X189640000Y-110902500I0J147500D01*
G01*
X189640000Y-110557500D01*
G75*
G02*
X189787500Y-110410000I147500J0D01*
G01*
X190082500Y-110410000D01*
G75*
G02*
X190230000Y-110557500I0J-147500D01*
G01*
G37*
G36*
G01*
X191200000Y-110557500D02*
X191200000Y-110902500D01*
G75*
G02*
X191052500Y-111050000I-147500J0D01*
G01*
X190757500Y-111050000D01*
G75*
G02*
X190610000Y-110902500I0J147500D01*
G01*
X190610000Y-110557500D01*
G75*
G02*
X190757500Y-110410000I147500J0D01*
G01*
X191052500Y-110410000D01*
G75*
G02*
X191200000Y-110557500I0J-147500D01*
G01*
G37*
G36*
G01*
X182000000Y-118811500D02*
X182000000Y-119156500D01*
G75*
G02*
X181852500Y-119304000I-147500J0D01*
G01*
X181557500Y-119304000D01*
G75*
G02*
X181410000Y-119156500I0J147500D01*
G01*
X181410000Y-118811500D01*
G75*
G02*
X181557500Y-118664000I147500J0D01*
G01*
X181852500Y-118664000D01*
G75*
G02*
X182000000Y-118811500I0J-147500D01*
G01*
G37*
G36*
G01*
X182970000Y-118811500D02*
X182970000Y-119156500D01*
G75*
G02*
X182822500Y-119304000I-147500J0D01*
G01*
X182527500Y-119304000D01*
G75*
G02*
X182380000Y-119156500I0J147500D01*
G01*
X182380000Y-118811500D01*
G75*
G02*
X182527500Y-118664000I147500J0D01*
G01*
X182822500Y-118664000D01*
G75*
G02*
X182970000Y-118811500I0J-147500D01*
G01*
G37*
G36*
G01*
X186380000Y-119156500D02*
X186380000Y-118811500D01*
G75*
G02*
X186527500Y-118664000I147500J0D01*
G01*
X186822500Y-118664000D01*
G75*
G02*
X186970000Y-118811500I0J-147500D01*
G01*
X186970000Y-119156500D01*
G75*
G02*
X186822500Y-119304000I-147500J0D01*
G01*
X186527500Y-119304000D01*
G75*
G02*
X186380000Y-119156500I0J147500D01*
G01*
G37*
G36*
G01*
X185410000Y-119156500D02*
X185410000Y-118811500D01*
G75*
G02*
X185557500Y-118664000I147500J0D01*
G01*
X185852500Y-118664000D01*
G75*
G02*
X186000000Y-118811500I0J-147500D01*
G01*
X186000000Y-119156500D01*
G75*
G02*
X185852500Y-119304000I-147500J0D01*
G01*
X185557500Y-119304000D01*
G75*
G02*
X185410000Y-119156500I0J147500D01*
G01*
G37*
G36*
G01*
X177858000Y-130607750D02*
X177858000Y-131520250D01*
G75*
G02*
X177614250Y-131764000I-243750J0D01*
G01*
X177126750Y-131764000D01*
G75*
G02*
X176883000Y-131520250I0J243750D01*
G01*
X176883000Y-130607750D01*
G75*
G02*
X177126750Y-130364000I243750J0D01*
G01*
X177614250Y-130364000D01*
G75*
G02*
X177858000Y-130607750I0J-243750D01*
G01*
G37*
G36*
G01*
X179733000Y-130607750D02*
X179733000Y-131520250D01*
G75*
G02*
X179489250Y-131764000I-243750J0D01*
G01*
X179001750Y-131764000D01*
G75*
G02*
X178758000Y-131520250I0J243750D01*
G01*
X178758000Y-130607750D01*
G75*
G02*
X179001750Y-130364000I243750J0D01*
G01*
X179489250Y-130364000D01*
G75*
G02*
X179733000Y-130607750I0J-243750D01*
G01*
G37*
G36*
G01*
X183690000Y-103672500D02*
X183690000Y-103327500D01*
G75*
G02*
X183837500Y-103180000I147500J0D01*
G01*
X184132500Y-103180000D01*
G75*
G02*
X184280000Y-103327500I0J-147500D01*
G01*
X184280000Y-103672500D01*
G75*
G02*
X184132500Y-103820000I-147500J0D01*
G01*
X183837500Y-103820000D01*
G75*
G02*
X183690000Y-103672500I0J147500D01*
G01*
G37*
G36*
G01*
X182720000Y-103672500D02*
X182720000Y-103327500D01*
G75*
G02*
X182867500Y-103180000I147500J0D01*
G01*
X183162500Y-103180000D01*
G75*
G02*
X183310000Y-103327500I0J-147500D01*
G01*
X183310000Y-103672500D01*
G75*
G02*
X183162500Y-103820000I-147500J0D01*
G01*
X182867500Y-103820000D01*
G75*
G02*
X182720000Y-103672500I0J147500D01*
G01*
G37*
G36*
G01*
X195898000Y-140035500D02*
X195898000Y-140380500D01*
G75*
G02*
X195750500Y-140528000I-147500J0D01*
G01*
X195455500Y-140528000D01*
G75*
G02*
X195308000Y-140380500I0J147500D01*
G01*
X195308000Y-140035500D01*
G75*
G02*
X195455500Y-139888000I147500J0D01*
G01*
X195750500Y-139888000D01*
G75*
G02*
X195898000Y-140035500I0J-147500D01*
G01*
G37*
G36*
G01*
X196868000Y-140035500D02*
X196868000Y-140380500D01*
G75*
G02*
X196720500Y-140528000I-147500J0D01*
G01*
X196425500Y-140528000D01*
G75*
G02*
X196278000Y-140380500I0J147500D01*
G01*
X196278000Y-140035500D01*
G75*
G02*
X196425500Y-139888000I147500J0D01*
G01*
X196720500Y-139888000D01*
G75*
G02*
X196868000Y-140035500I0J-147500D01*
G01*
G37*
G36*
G01*
X213804000Y-137586500D02*
X213804000Y-137241500D01*
G75*
G02*
X213951500Y-137094000I147500J0D01*
G01*
X214246500Y-137094000D01*
G75*
G02*
X214394000Y-137241500I0J-147500D01*
G01*
X214394000Y-137586500D01*
G75*
G02*
X214246500Y-137734000I-147500J0D01*
G01*
X213951500Y-137734000D01*
G75*
G02*
X213804000Y-137586500I0J147500D01*
G01*
G37*
G36*
G01*
X212834000Y-137586500D02*
X212834000Y-137241500D01*
G75*
G02*
X212981500Y-137094000I147500J0D01*
G01*
X213276500Y-137094000D01*
G75*
G02*
X213424000Y-137241500I0J-147500D01*
G01*
X213424000Y-137586500D01*
G75*
G02*
X213276500Y-137734000I-147500J0D01*
G01*
X212981500Y-137734000D01*
G75*
G02*
X212834000Y-137586500I0J147500D01*
G01*
G37*
G36*
G01*
X213690000Y-144422500D02*
X213690000Y-144077500D01*
G75*
G02*
X213837500Y-143930000I147500J0D01*
G01*
X214132500Y-143930000D01*
G75*
G02*
X214280000Y-144077500I0J-147500D01*
G01*
X214280000Y-144422500D01*
G75*
G02*
X214132500Y-144570000I-147500J0D01*
G01*
X213837500Y-144570000D01*
G75*
G02*
X213690000Y-144422500I0J147500D01*
G01*
G37*
G36*
G01*
X212720000Y-144422500D02*
X212720000Y-144077500D01*
G75*
G02*
X212867500Y-143930000I147500J0D01*
G01*
X213162500Y-143930000D01*
G75*
G02*
X213310000Y-144077500I0J-147500D01*
G01*
X213310000Y-144422500D01*
G75*
G02*
X213162500Y-144570000I-147500J0D01*
G01*
X212867500Y-144570000D01*
G75*
G02*
X212720000Y-144422500I0J147500D01*
G01*
G37*
G36*
G01*
X206050000Y-130043750D02*
X206050000Y-130956250D01*
G75*
G02*
X205806250Y-131200000I-243750J0D01*
G01*
X205318750Y-131200000D01*
G75*
G02*
X205075000Y-130956250I0J243750D01*
G01*
X205075000Y-130043750D01*
G75*
G02*
X205318750Y-129800000I243750J0D01*
G01*
X205806250Y-129800000D01*
G75*
G02*
X206050000Y-130043750I0J-243750D01*
G01*
G37*
G36*
G01*
X207925000Y-130043750D02*
X207925000Y-130956250D01*
G75*
G02*
X207681250Y-131200000I-243750J0D01*
G01*
X207193750Y-131200000D01*
G75*
G02*
X206950000Y-130956250I0J243750D01*
G01*
X206950000Y-130043750D01*
G75*
G02*
X207193750Y-129800000I243750J0D01*
G01*
X207681250Y-129800000D01*
G75*
G02*
X207925000Y-130043750I0J-243750D01*
G01*
G37*
G36*
G01*
X206050000Y-127543750D02*
X206050000Y-128456250D01*
G75*
G02*
X205806250Y-128700000I-243750J0D01*
G01*
X205318750Y-128700000D01*
G75*
G02*
X205075000Y-128456250I0J243750D01*
G01*
X205075000Y-127543750D01*
G75*
G02*
X205318750Y-127300000I243750J0D01*
G01*
X205806250Y-127300000D01*
G75*
G02*
X206050000Y-127543750I0J-243750D01*
G01*
G37*
G36*
G01*
X207925000Y-127543750D02*
X207925000Y-128456250D01*
G75*
G02*
X207681250Y-128700000I-243750J0D01*
G01*
X207193750Y-128700000D01*
G75*
G02*
X206950000Y-128456250I0J243750D01*
G01*
X206950000Y-127543750D01*
G75*
G02*
X207193750Y-127300000I243750J0D01*
G01*
X207681250Y-127300000D01*
G75*
G02*
X207925000Y-127543750I0J-243750D01*
G01*
G37*
G36*
G01*
X213950000Y-119706250D02*
X213950000Y-118793750D01*
G75*
G02*
X214193750Y-118550000I243750J0D01*
G01*
X214681250Y-118550000D01*
G75*
G02*
X214925000Y-118793750I0J-243750D01*
G01*
X214925000Y-119706250D01*
G75*
G02*
X214681250Y-119950000I-243750J0D01*
G01*
X214193750Y-119950000D01*
G75*
G02*
X213950000Y-119706250I0J243750D01*
G01*
G37*
G36*
G01*
X212075000Y-119706250D02*
X212075000Y-118793750D01*
G75*
G02*
X212318750Y-118550000I243750J0D01*
G01*
X212806250Y-118550000D01*
G75*
G02*
X213050000Y-118793750I0J-243750D01*
G01*
X213050000Y-119706250D01*
G75*
G02*
X212806250Y-119950000I-243750J0D01*
G01*
X212318750Y-119950000D01*
G75*
G02*
X212075000Y-119706250I0J243750D01*
G01*
G37*
G36*
G01*
X213950000Y-116956250D02*
X213950000Y-116043750D01*
G75*
G02*
X214193750Y-115800000I243750J0D01*
G01*
X214681250Y-115800000D01*
G75*
G02*
X214925000Y-116043750I0J-243750D01*
G01*
X214925000Y-116956250D01*
G75*
G02*
X214681250Y-117200000I-243750J0D01*
G01*
X214193750Y-117200000D01*
G75*
G02*
X213950000Y-116956250I0J243750D01*
G01*
G37*
G36*
G01*
X212075000Y-116956250D02*
X212075000Y-116043750D01*
G75*
G02*
X212318750Y-115800000I243750J0D01*
G01*
X212806250Y-115800000D01*
G75*
G02*
X213050000Y-116043750I0J-243750D01*
G01*
X213050000Y-116956250D01*
G75*
G02*
X212806250Y-117200000I-243750J0D01*
G01*
X212318750Y-117200000D01*
G75*
G02*
X212075000Y-116956250I0J243750D01*
G01*
G37*
G36*
G01*
X206310000Y-120327500D02*
X206310000Y-120672500D01*
G75*
G02*
X206162500Y-120820000I-147500J0D01*
G01*
X205867500Y-120820000D01*
G75*
G02*
X205720000Y-120672500I0J147500D01*
G01*
X205720000Y-120327500D01*
G75*
G02*
X205867500Y-120180000I147500J0D01*
G01*
X206162500Y-120180000D01*
G75*
G02*
X206310000Y-120327500I0J-147500D01*
G01*
G37*
G36*
G01*
X207280000Y-120327500D02*
X207280000Y-120672500D01*
G75*
G02*
X207132500Y-120820000I-147500J0D01*
G01*
X206837500Y-120820000D01*
G75*
G02*
X206690000Y-120672500I0J147500D01*
G01*
X206690000Y-120327500D01*
G75*
G02*
X206837500Y-120180000I147500J0D01*
G01*
X207132500Y-120180000D01*
G75*
G02*
X207280000Y-120327500I0J-147500D01*
G01*
G37*
G36*
G01*
X193165000Y-124322000D02*
X194565000Y-124322000D01*
G75*
G02*
X194640000Y-124397000I0J-75000D01*
G01*
X194640000Y-124547000D01*
G75*
G02*
X194565000Y-124622000I-75000J0D01*
G01*
X193165000Y-124622000D01*
G75*
G02*
X193090000Y-124547000I0J75000D01*
G01*
X193090000Y-124397000D01*
G75*
G02*
X193165000Y-124322000I75000J0D01*
G01*
G37*
G36*
G01*
X193165000Y-124822000D02*
X194565000Y-124822000D01*
G75*
G02*
X194640000Y-124897000I0J-75000D01*
G01*
X194640000Y-125047000D01*
G75*
G02*
X194565000Y-125122000I-75000J0D01*
G01*
X193165000Y-125122000D01*
G75*
G02*
X193090000Y-125047000I0J75000D01*
G01*
X193090000Y-124897000D01*
G75*
G02*
X193165000Y-124822000I75000J0D01*
G01*
G37*
G36*
G01*
X193165000Y-125322000D02*
X194565000Y-125322000D01*
G75*
G02*
X194640000Y-125397000I0J-75000D01*
G01*
X194640000Y-125547000D01*
G75*
G02*
X194565000Y-125622000I-75000J0D01*
G01*
X193165000Y-125622000D01*
G75*
G02*
X193090000Y-125547000I0J75000D01*
G01*
X193090000Y-125397000D01*
G75*
G02*
X193165000Y-125322000I75000J0D01*
G01*
G37*
G36*
G01*
X193165000Y-125822000D02*
X194565000Y-125822000D01*
G75*
G02*
X194640000Y-125897000I0J-75000D01*
G01*
X194640000Y-126047000D01*
G75*
G02*
X194565000Y-126122000I-75000J0D01*
G01*
X193165000Y-126122000D01*
G75*
G02*
X193090000Y-126047000I0J75000D01*
G01*
X193090000Y-125897000D01*
G75*
G02*
X193165000Y-125822000I75000J0D01*
G01*
G37*
G36*
G01*
X193165000Y-126322000D02*
X194565000Y-126322000D01*
G75*
G02*
X194640000Y-126397000I0J-75000D01*
G01*
X194640000Y-126547000D01*
G75*
G02*
X194565000Y-126622000I-75000J0D01*
G01*
X193165000Y-126622000D01*
G75*
G02*
X193090000Y-126547000I0J75000D01*
G01*
X193090000Y-126397000D01*
G75*
G02*
X193165000Y-126322000I75000J0D01*
G01*
G37*
G36*
G01*
X193165000Y-126822000D02*
X194565000Y-126822000D01*
G75*
G02*
X194640000Y-126897000I0J-75000D01*
G01*
X194640000Y-127047000D01*
G75*
G02*
X194565000Y-127122000I-75000J0D01*
G01*
X193165000Y-127122000D01*
G75*
G02*
X193090000Y-127047000I0J75000D01*
G01*
X193090000Y-126897000D01*
G75*
G02*
X193165000Y-126822000I75000J0D01*
G01*
G37*
G36*
G01*
X193165000Y-127322000D02*
X194565000Y-127322000D01*
G75*
G02*
X194640000Y-127397000I0J-75000D01*
G01*
X194640000Y-127547000D01*
G75*
G02*
X194565000Y-127622000I-75000J0D01*
G01*
X193165000Y-127622000D01*
G75*
G02*
X193090000Y-127547000I0J75000D01*
G01*
X193090000Y-127397000D01*
G75*
G02*
X193165000Y-127322000I75000J0D01*
G01*
G37*
G36*
G01*
X193165000Y-127822000D02*
X194565000Y-127822000D01*
G75*
G02*
X194640000Y-127897000I0J-75000D01*
G01*
X194640000Y-128047000D01*
G75*
G02*
X194565000Y-128122000I-75000J0D01*
G01*
X193165000Y-128122000D01*
G75*
G02*
X193090000Y-128047000I0J75000D01*
G01*
X193090000Y-127897000D01*
G75*
G02*
X193165000Y-127822000I75000J0D01*
G01*
G37*
G36*
G01*
X193165000Y-128322000D02*
X194565000Y-128322000D01*
G75*
G02*
X194640000Y-128397000I0J-75000D01*
G01*
X194640000Y-128547000D01*
G75*
G02*
X194565000Y-128622000I-75000J0D01*
G01*
X193165000Y-128622000D01*
G75*
G02*
X193090000Y-128547000I0J75000D01*
G01*
X193090000Y-128397000D01*
G75*
G02*
X193165000Y-128322000I75000J0D01*
G01*
G37*
G36*
G01*
X193165000Y-128822000D02*
X194565000Y-128822000D01*
G75*
G02*
X194640000Y-128897000I0J-75000D01*
G01*
X194640000Y-129047000D01*
G75*
G02*
X194565000Y-129122000I-75000J0D01*
G01*
X193165000Y-129122000D01*
G75*
G02*
X193090000Y-129047000I0J75000D01*
G01*
X193090000Y-128897000D01*
G75*
G02*
X193165000Y-128822000I75000J0D01*
G01*
G37*
G36*
G01*
X193165000Y-129322000D02*
X194565000Y-129322000D01*
G75*
G02*
X194640000Y-129397000I0J-75000D01*
G01*
X194640000Y-129547000D01*
G75*
G02*
X194565000Y-129622000I-75000J0D01*
G01*
X193165000Y-129622000D01*
G75*
G02*
X193090000Y-129547000I0J75000D01*
G01*
X193090000Y-129397000D01*
G75*
G02*
X193165000Y-129322000I75000J0D01*
G01*
G37*
G36*
G01*
X193165000Y-129822000D02*
X194565000Y-129822000D01*
G75*
G02*
X194640000Y-129897000I0J-75000D01*
G01*
X194640000Y-130047000D01*
G75*
G02*
X194565000Y-130122000I-75000J0D01*
G01*
X193165000Y-130122000D01*
G75*
G02*
X193090000Y-130047000I0J75000D01*
G01*
X193090000Y-129897000D01*
G75*
G02*
X193165000Y-129822000I75000J0D01*
G01*
G37*
G36*
G01*
X193165000Y-130322000D02*
X194565000Y-130322000D01*
G75*
G02*
X194640000Y-130397000I0J-75000D01*
G01*
X194640000Y-130547000D01*
G75*
G02*
X194565000Y-130622000I-75000J0D01*
G01*
X193165000Y-130622000D01*
G75*
G02*
X193090000Y-130547000I0J75000D01*
G01*
X193090000Y-130397000D01*
G75*
G02*
X193165000Y-130322000I75000J0D01*
G01*
G37*
G36*
G01*
X193165000Y-130822000D02*
X194565000Y-130822000D01*
G75*
G02*
X194640000Y-130897000I0J-75000D01*
G01*
X194640000Y-131047000D01*
G75*
G02*
X194565000Y-131122000I-75000J0D01*
G01*
X193165000Y-131122000D01*
G75*
G02*
X193090000Y-131047000I0J75000D01*
G01*
X193090000Y-130897000D01*
G75*
G02*
X193165000Y-130822000I75000J0D01*
G01*
G37*
G36*
G01*
X193165000Y-131322000D02*
X194565000Y-131322000D01*
G75*
G02*
X194640000Y-131397000I0J-75000D01*
G01*
X194640000Y-131547000D01*
G75*
G02*
X194565000Y-131622000I-75000J0D01*
G01*
X193165000Y-131622000D01*
G75*
G02*
X193090000Y-131547000I0J75000D01*
G01*
X193090000Y-131397000D01*
G75*
G02*
X193165000Y-131322000I75000J0D01*
G01*
G37*
G36*
G01*
X193165000Y-131822000D02*
X194565000Y-131822000D01*
G75*
G02*
X194640000Y-131897000I0J-75000D01*
G01*
X194640000Y-132047000D01*
G75*
G02*
X194565000Y-132122000I-75000J0D01*
G01*
X193165000Y-132122000D01*
G75*
G02*
X193090000Y-132047000I0J75000D01*
G01*
X193090000Y-131897000D01*
G75*
G02*
X193165000Y-131822000I75000J0D01*
G01*
G37*
G36*
G01*
X191865000Y-133122000D02*
X192015000Y-133122000D01*
G75*
G02*
X192090000Y-133197000I0J-75000D01*
G01*
X192090000Y-134597000D01*
G75*
G02*
X192015000Y-134672000I-75000J0D01*
G01*
X191865000Y-134672000D01*
G75*
G02*
X191790000Y-134597000I0J75000D01*
G01*
X191790000Y-133197000D01*
G75*
G02*
X191865000Y-133122000I75000J0D01*
G01*
G37*
G36*
G01*
X191365000Y-133122000D02*
X191515000Y-133122000D01*
G75*
G02*
X191590000Y-133197000I0J-75000D01*
G01*
X191590000Y-134597000D01*
G75*
G02*
X191515000Y-134672000I-75000J0D01*
G01*
X191365000Y-134672000D01*
G75*
G02*
X191290000Y-134597000I0J75000D01*
G01*
X191290000Y-133197000D01*
G75*
G02*
X191365000Y-133122000I75000J0D01*
G01*
G37*
G36*
G01*
X190865000Y-133122000D02*
X191015000Y-133122000D01*
G75*
G02*
X191090000Y-133197000I0J-75000D01*
G01*
X191090000Y-134597000D01*
G75*
G02*
X191015000Y-134672000I-75000J0D01*
G01*
X190865000Y-134672000D01*
G75*
G02*
X190790000Y-134597000I0J75000D01*
G01*
X190790000Y-133197000D01*
G75*
G02*
X190865000Y-133122000I75000J0D01*
G01*
G37*
G36*
G01*
X190365000Y-133122000D02*
X190515000Y-133122000D01*
G75*
G02*
X190590000Y-133197000I0J-75000D01*
G01*
X190590000Y-134597000D01*
G75*
G02*
X190515000Y-134672000I-75000J0D01*
G01*
X190365000Y-134672000D01*
G75*
G02*
X190290000Y-134597000I0J75000D01*
G01*
X190290000Y-133197000D01*
G75*
G02*
X190365000Y-133122000I75000J0D01*
G01*
G37*
G36*
G01*
X189865000Y-133122000D02*
X190015000Y-133122000D01*
G75*
G02*
X190090000Y-133197000I0J-75000D01*
G01*
X190090000Y-134597000D01*
G75*
G02*
X190015000Y-134672000I-75000J0D01*
G01*
X189865000Y-134672000D01*
G75*
G02*
X189790000Y-134597000I0J75000D01*
G01*
X189790000Y-133197000D01*
G75*
G02*
X189865000Y-133122000I75000J0D01*
G01*
G37*
G36*
G01*
X189365000Y-133122000D02*
X189515000Y-133122000D01*
G75*
G02*
X189590000Y-133197000I0J-75000D01*
G01*
X189590000Y-134597000D01*
G75*
G02*
X189515000Y-134672000I-75000J0D01*
G01*
X189365000Y-134672000D01*
G75*
G02*
X189290000Y-134597000I0J75000D01*
G01*
X189290000Y-133197000D01*
G75*
G02*
X189365000Y-133122000I75000J0D01*
G01*
G37*
G36*
G01*
X188865000Y-133122000D02*
X189015000Y-133122000D01*
G75*
G02*
X189090000Y-133197000I0J-75000D01*
G01*
X189090000Y-134597000D01*
G75*
G02*
X189015000Y-134672000I-75000J0D01*
G01*
X188865000Y-134672000D01*
G75*
G02*
X188790000Y-134597000I0J75000D01*
G01*
X188790000Y-133197000D01*
G75*
G02*
X188865000Y-133122000I75000J0D01*
G01*
G37*
G36*
G01*
X188365000Y-133122000D02*
X188515000Y-133122000D01*
G75*
G02*
X188590000Y-133197000I0J-75000D01*
G01*
X188590000Y-134597000D01*
G75*
G02*
X188515000Y-134672000I-75000J0D01*
G01*
X188365000Y-134672000D01*
G75*
G02*
X188290000Y-134597000I0J75000D01*
G01*
X188290000Y-133197000D01*
G75*
G02*
X188365000Y-133122000I75000J0D01*
G01*
G37*
G36*
G01*
X187865000Y-133122000D02*
X188015000Y-133122000D01*
G75*
G02*
X188090000Y-133197000I0J-75000D01*
G01*
X188090000Y-134597000D01*
G75*
G02*
X188015000Y-134672000I-75000J0D01*
G01*
X187865000Y-134672000D01*
G75*
G02*
X187790000Y-134597000I0J75000D01*
G01*
X187790000Y-133197000D01*
G75*
G02*
X187865000Y-133122000I75000J0D01*
G01*
G37*
G36*
G01*
X187365000Y-133122000D02*
X187515000Y-133122000D01*
G75*
G02*
X187590000Y-133197000I0J-75000D01*
G01*
X187590000Y-134597000D01*
G75*
G02*
X187515000Y-134672000I-75000J0D01*
G01*
X187365000Y-134672000D01*
G75*
G02*
X187290000Y-134597000I0J75000D01*
G01*
X187290000Y-133197000D01*
G75*
G02*
X187365000Y-133122000I75000J0D01*
G01*
G37*
G36*
G01*
X186865000Y-133122000D02*
X187015000Y-133122000D01*
G75*
G02*
X187090000Y-133197000I0J-75000D01*
G01*
X187090000Y-134597000D01*
G75*
G02*
X187015000Y-134672000I-75000J0D01*
G01*
X186865000Y-134672000D01*
G75*
G02*
X186790000Y-134597000I0J75000D01*
G01*
X186790000Y-133197000D01*
G75*
G02*
X186865000Y-133122000I75000J0D01*
G01*
G37*
G36*
G01*
X186365000Y-133122000D02*
X186515000Y-133122000D01*
G75*
G02*
X186590000Y-133197000I0J-75000D01*
G01*
X186590000Y-134597000D01*
G75*
G02*
X186515000Y-134672000I-75000J0D01*
G01*
X186365000Y-134672000D01*
G75*
G02*
X186290000Y-134597000I0J75000D01*
G01*
X186290000Y-133197000D01*
G75*
G02*
X186365000Y-133122000I75000J0D01*
G01*
G37*
G36*
G01*
X185865000Y-133122000D02*
X186015000Y-133122000D01*
G75*
G02*
X186090000Y-133197000I0J-75000D01*
G01*
X186090000Y-134597000D01*
G75*
G02*
X186015000Y-134672000I-75000J0D01*
G01*
X185865000Y-134672000D01*
G75*
G02*
X185790000Y-134597000I0J75000D01*
G01*
X185790000Y-133197000D01*
G75*
G02*
X185865000Y-133122000I75000J0D01*
G01*
G37*
G36*
G01*
X185365000Y-133122000D02*
X185515000Y-133122000D01*
G75*
G02*
X185590000Y-133197000I0J-75000D01*
G01*
X185590000Y-134597000D01*
G75*
G02*
X185515000Y-134672000I-75000J0D01*
G01*
X185365000Y-134672000D01*
G75*
G02*
X185290000Y-134597000I0J75000D01*
G01*
X185290000Y-133197000D01*
G75*
G02*
X185365000Y-133122000I75000J0D01*
G01*
G37*
G36*
G01*
X184865000Y-133122000D02*
X185015000Y-133122000D01*
G75*
G02*
X185090000Y-133197000I0J-75000D01*
G01*
X185090000Y-134597000D01*
G75*
G02*
X185015000Y-134672000I-75000J0D01*
G01*
X184865000Y-134672000D01*
G75*
G02*
X184790000Y-134597000I0J75000D01*
G01*
X184790000Y-133197000D01*
G75*
G02*
X184865000Y-133122000I75000J0D01*
G01*
G37*
G36*
G01*
X184365000Y-133122000D02*
X184515000Y-133122000D01*
G75*
G02*
X184590000Y-133197000I0J-75000D01*
G01*
X184590000Y-134597000D01*
G75*
G02*
X184515000Y-134672000I-75000J0D01*
G01*
X184365000Y-134672000D01*
G75*
G02*
X184290000Y-134597000I0J75000D01*
G01*
X184290000Y-133197000D01*
G75*
G02*
X184365000Y-133122000I75000J0D01*
G01*
G37*
G36*
G01*
X181815000Y-131822000D02*
X183215000Y-131822000D01*
G75*
G02*
X183290000Y-131897000I0J-75000D01*
G01*
X183290000Y-132047000D01*
G75*
G02*
X183215000Y-132122000I-75000J0D01*
G01*
X181815000Y-132122000D01*
G75*
G02*
X181740000Y-132047000I0J75000D01*
G01*
X181740000Y-131897000D01*
G75*
G02*
X181815000Y-131822000I75000J0D01*
G01*
G37*
G36*
G01*
X181815000Y-131322000D02*
X183215000Y-131322000D01*
G75*
G02*
X183290000Y-131397000I0J-75000D01*
G01*
X183290000Y-131547000D01*
G75*
G02*
X183215000Y-131622000I-75000J0D01*
G01*
X181815000Y-131622000D01*
G75*
G02*
X181740000Y-131547000I0J75000D01*
G01*
X181740000Y-131397000D01*
G75*
G02*
X181815000Y-131322000I75000J0D01*
G01*
G37*
G36*
G01*
X181815000Y-130822000D02*
X183215000Y-130822000D01*
G75*
G02*
X183290000Y-130897000I0J-75000D01*
G01*
X183290000Y-131047000D01*
G75*
G02*
X183215000Y-131122000I-75000J0D01*
G01*
X181815000Y-131122000D01*
G75*
G02*
X181740000Y-131047000I0J75000D01*
G01*
X181740000Y-130897000D01*
G75*
G02*
X181815000Y-130822000I75000J0D01*
G01*
G37*
G36*
G01*
X181815000Y-130322000D02*
X183215000Y-130322000D01*
G75*
G02*
X183290000Y-130397000I0J-75000D01*
G01*
X183290000Y-130547000D01*
G75*
G02*
X183215000Y-130622000I-75000J0D01*
G01*
X181815000Y-130622000D01*
G75*
G02*
X181740000Y-130547000I0J75000D01*
G01*
X181740000Y-130397000D01*
G75*
G02*
X181815000Y-130322000I75000J0D01*
G01*
G37*
G36*
G01*
X181815000Y-129822000D02*
X183215000Y-129822000D01*
G75*
G02*
X183290000Y-129897000I0J-75000D01*
G01*
X183290000Y-130047000D01*
G75*
G02*
X183215000Y-130122000I-75000J0D01*
G01*
X181815000Y-130122000D01*
G75*
G02*
X181740000Y-130047000I0J75000D01*
G01*
X181740000Y-129897000D01*
G75*
G02*
X181815000Y-129822000I75000J0D01*
G01*
G37*
G36*
G01*
X181815000Y-129322000D02*
X183215000Y-129322000D01*
G75*
G02*
X183290000Y-129397000I0J-75000D01*
G01*
X183290000Y-129547000D01*
G75*
G02*
X183215000Y-129622000I-75000J0D01*
G01*
X181815000Y-129622000D01*
G75*
G02*
X181740000Y-129547000I0J75000D01*
G01*
X181740000Y-129397000D01*
G75*
G02*
X181815000Y-129322000I75000J0D01*
G01*
G37*
G36*
G01*
X181815000Y-128822000D02*
X183215000Y-128822000D01*
G75*
G02*
X183290000Y-128897000I0J-75000D01*
G01*
X183290000Y-129047000D01*
G75*
G02*
X183215000Y-129122000I-75000J0D01*
G01*
X181815000Y-129122000D01*
G75*
G02*
X181740000Y-129047000I0J75000D01*
G01*
X181740000Y-128897000D01*
G75*
G02*
X181815000Y-128822000I75000J0D01*
G01*
G37*
G36*
G01*
X181815000Y-128322000D02*
X183215000Y-128322000D01*
G75*
G02*
X183290000Y-128397000I0J-75000D01*
G01*
X183290000Y-128547000D01*
G75*
G02*
X183215000Y-128622000I-75000J0D01*
G01*
X181815000Y-128622000D01*
G75*
G02*
X181740000Y-128547000I0J75000D01*
G01*
X181740000Y-128397000D01*
G75*
G02*
X181815000Y-128322000I75000J0D01*
G01*
G37*
G36*
G01*
X181815000Y-127822000D02*
X183215000Y-127822000D01*
G75*
G02*
X183290000Y-127897000I0J-75000D01*
G01*
X183290000Y-128047000D01*
G75*
G02*
X183215000Y-128122000I-75000J0D01*
G01*
X181815000Y-128122000D01*
G75*
G02*
X181740000Y-128047000I0J75000D01*
G01*
X181740000Y-127897000D01*
G75*
G02*
X181815000Y-127822000I75000J0D01*
G01*
G37*
G36*
G01*
X181815000Y-127322000D02*
X183215000Y-127322000D01*
G75*
G02*
X183290000Y-127397000I0J-75000D01*
G01*
X183290000Y-127547000D01*
G75*
G02*
X183215000Y-127622000I-75000J0D01*
G01*
X181815000Y-127622000D01*
G75*
G02*
X181740000Y-127547000I0J75000D01*
G01*
X181740000Y-127397000D01*
G75*
G02*
X181815000Y-127322000I75000J0D01*
G01*
G37*
G36*
G01*
X181815000Y-126822000D02*
X183215000Y-126822000D01*
G75*
G02*
X183290000Y-126897000I0J-75000D01*
G01*
X183290000Y-127047000D01*
G75*
G02*
X183215000Y-127122000I-75000J0D01*
G01*
X181815000Y-127122000D01*
G75*
G02*
X181740000Y-127047000I0J75000D01*
G01*
X181740000Y-126897000D01*
G75*
G02*
X181815000Y-126822000I75000J0D01*
G01*
G37*
G36*
G01*
X181815000Y-126322000D02*
X183215000Y-126322000D01*
G75*
G02*
X183290000Y-126397000I0J-75000D01*
G01*
X183290000Y-126547000D01*
G75*
G02*
X183215000Y-126622000I-75000J0D01*
G01*
X181815000Y-126622000D01*
G75*
G02*
X181740000Y-126547000I0J75000D01*
G01*
X181740000Y-126397000D01*
G75*
G02*
X181815000Y-126322000I75000J0D01*
G01*
G37*
G36*
G01*
X181815000Y-125822000D02*
X183215000Y-125822000D01*
G75*
G02*
X183290000Y-125897000I0J-75000D01*
G01*
X183290000Y-126047000D01*
G75*
G02*
X183215000Y-126122000I-75000J0D01*
G01*
X181815000Y-126122000D01*
G75*
G02*
X181740000Y-126047000I0J75000D01*
G01*
X181740000Y-125897000D01*
G75*
G02*
X181815000Y-125822000I75000J0D01*
G01*
G37*
G36*
G01*
X181815000Y-125322000D02*
X183215000Y-125322000D01*
G75*
G02*
X183290000Y-125397000I0J-75000D01*
G01*
X183290000Y-125547000D01*
G75*
G02*
X183215000Y-125622000I-75000J0D01*
G01*
X181815000Y-125622000D01*
G75*
G02*
X181740000Y-125547000I0J75000D01*
G01*
X181740000Y-125397000D01*
G75*
G02*
X181815000Y-125322000I75000J0D01*
G01*
G37*
G36*
G01*
X181815000Y-124822000D02*
X183215000Y-124822000D01*
G75*
G02*
X183290000Y-124897000I0J-75000D01*
G01*
X183290000Y-125047000D01*
G75*
G02*
X183215000Y-125122000I-75000J0D01*
G01*
X181815000Y-125122000D01*
G75*
G02*
X181740000Y-125047000I0J75000D01*
G01*
X181740000Y-124897000D01*
G75*
G02*
X181815000Y-124822000I75000J0D01*
G01*
G37*
G36*
G01*
X181815000Y-124322000D02*
X183215000Y-124322000D01*
G75*
G02*
X183290000Y-124397000I0J-75000D01*
G01*
X183290000Y-124547000D01*
G75*
G02*
X183215000Y-124622000I-75000J0D01*
G01*
X181815000Y-124622000D01*
G75*
G02*
X181740000Y-124547000I0J75000D01*
G01*
X181740000Y-124397000D01*
G75*
G02*
X181815000Y-124322000I75000J0D01*
G01*
G37*
G36*
G01*
X184365000Y-121772000D02*
X184515000Y-121772000D01*
G75*
G02*
X184590000Y-121847000I0J-75000D01*
G01*
X184590000Y-123247000D01*
G75*
G02*
X184515000Y-123322000I-75000J0D01*
G01*
X184365000Y-123322000D01*
G75*
G02*
X184290000Y-123247000I0J75000D01*
G01*
X184290000Y-121847000D01*
G75*
G02*
X184365000Y-121772000I75000J0D01*
G01*
G37*
G36*
G01*
X184865000Y-121772000D02*
X185015000Y-121772000D01*
G75*
G02*
X185090000Y-121847000I0J-75000D01*
G01*
X185090000Y-123247000D01*
G75*
G02*
X185015000Y-123322000I-75000J0D01*
G01*
X184865000Y-123322000D01*
G75*
G02*
X184790000Y-123247000I0J75000D01*
G01*
X184790000Y-121847000D01*
G75*
G02*
X184865000Y-121772000I75000J0D01*
G01*
G37*
G36*
G01*
X185365000Y-121772000D02*
X185515000Y-121772000D01*
G75*
G02*
X185590000Y-121847000I0J-75000D01*
G01*
X185590000Y-123247000D01*
G75*
G02*
X185515000Y-123322000I-75000J0D01*
G01*
X185365000Y-123322000D01*
G75*
G02*
X185290000Y-123247000I0J75000D01*
G01*
X185290000Y-121847000D01*
G75*
G02*
X185365000Y-121772000I75000J0D01*
G01*
G37*
G36*
G01*
X185865000Y-121772000D02*
X186015000Y-121772000D01*
G75*
G02*
X186090000Y-121847000I0J-75000D01*
G01*
X186090000Y-123247000D01*
G75*
G02*
X186015000Y-123322000I-75000J0D01*
G01*
X185865000Y-123322000D01*
G75*
G02*
X185790000Y-123247000I0J75000D01*
G01*
X185790000Y-121847000D01*
G75*
G02*
X185865000Y-121772000I75000J0D01*
G01*
G37*
G36*
G01*
X186365000Y-121772000D02*
X186515000Y-121772000D01*
G75*
G02*
X186590000Y-121847000I0J-75000D01*
G01*
X186590000Y-123247000D01*
G75*
G02*
X186515000Y-123322000I-75000J0D01*
G01*
X186365000Y-123322000D01*
G75*
G02*
X186290000Y-123247000I0J75000D01*
G01*
X186290000Y-121847000D01*
G75*
G02*
X186365000Y-121772000I75000J0D01*
G01*
G37*
G36*
G01*
X186865000Y-121772000D02*
X187015000Y-121772000D01*
G75*
G02*
X187090000Y-121847000I0J-75000D01*
G01*
X187090000Y-123247000D01*
G75*
G02*
X187015000Y-123322000I-75000J0D01*
G01*
X186865000Y-123322000D01*
G75*
G02*
X186790000Y-123247000I0J75000D01*
G01*
X186790000Y-121847000D01*
G75*
G02*
X186865000Y-121772000I75000J0D01*
G01*
G37*
G36*
G01*
X187365000Y-121772000D02*
X187515000Y-121772000D01*
G75*
G02*
X187590000Y-121847000I0J-75000D01*
G01*
X187590000Y-123247000D01*
G75*
G02*
X187515000Y-123322000I-75000J0D01*
G01*
X187365000Y-123322000D01*
G75*
G02*
X187290000Y-123247000I0J75000D01*
G01*
X187290000Y-121847000D01*
G75*
G02*
X187365000Y-121772000I75000J0D01*
G01*
G37*
G36*
G01*
X187865000Y-121772000D02*
X188015000Y-121772000D01*
G75*
G02*
X188090000Y-121847000I0J-75000D01*
G01*
X188090000Y-123247000D01*
G75*
G02*
X188015000Y-123322000I-75000J0D01*
G01*
X187865000Y-123322000D01*
G75*
G02*
X187790000Y-123247000I0J75000D01*
G01*
X187790000Y-121847000D01*
G75*
G02*
X187865000Y-121772000I75000J0D01*
G01*
G37*
G36*
G01*
X188365000Y-121772000D02*
X188515000Y-121772000D01*
G75*
G02*
X188590000Y-121847000I0J-75000D01*
G01*
X188590000Y-123247000D01*
G75*
G02*
X188515000Y-123322000I-75000J0D01*
G01*
X188365000Y-123322000D01*
G75*
G02*
X188290000Y-123247000I0J75000D01*
G01*
X188290000Y-121847000D01*
G75*
G02*
X188365000Y-121772000I75000J0D01*
G01*
G37*
G36*
G01*
X188865000Y-121772000D02*
X189015000Y-121772000D01*
G75*
G02*
X189090000Y-121847000I0J-75000D01*
G01*
X189090000Y-123247000D01*
G75*
G02*
X189015000Y-123322000I-75000J0D01*
G01*
X188865000Y-123322000D01*
G75*
G02*
X188790000Y-123247000I0J75000D01*
G01*
X188790000Y-121847000D01*
G75*
G02*
X188865000Y-121772000I75000J0D01*
G01*
G37*
G36*
G01*
X189365000Y-121772000D02*
X189515000Y-121772000D01*
G75*
G02*
X189590000Y-121847000I0J-75000D01*
G01*
X189590000Y-123247000D01*
G75*
G02*
X189515000Y-123322000I-75000J0D01*
G01*
X189365000Y-123322000D01*
G75*
G02*
X189290000Y-123247000I0J75000D01*
G01*
X189290000Y-121847000D01*
G75*
G02*
X189365000Y-121772000I75000J0D01*
G01*
G37*
G36*
G01*
X189865000Y-121772000D02*
X190015000Y-121772000D01*
G75*
G02*
X190090000Y-121847000I0J-75000D01*
G01*
X190090000Y-123247000D01*
G75*
G02*
X190015000Y-123322000I-75000J0D01*
G01*
X189865000Y-123322000D01*
G75*
G02*
X189790000Y-123247000I0J75000D01*
G01*
X189790000Y-121847000D01*
G75*
G02*
X189865000Y-121772000I75000J0D01*
G01*
G37*
G36*
G01*
X190365000Y-121772000D02*
X190515000Y-121772000D01*
G75*
G02*
X190590000Y-121847000I0J-75000D01*
G01*
X190590000Y-123247000D01*
G75*
G02*
X190515000Y-123322000I-75000J0D01*
G01*
X190365000Y-123322000D01*
G75*
G02*
X190290000Y-123247000I0J75000D01*
G01*
X190290000Y-121847000D01*
G75*
G02*
X190365000Y-121772000I75000J0D01*
G01*
G37*
G36*
G01*
X190865000Y-121772000D02*
X191015000Y-121772000D01*
G75*
G02*
X191090000Y-121847000I0J-75000D01*
G01*
X191090000Y-123247000D01*
G75*
G02*
X191015000Y-123322000I-75000J0D01*
G01*
X190865000Y-123322000D01*
G75*
G02*
X190790000Y-123247000I0J75000D01*
G01*
X190790000Y-121847000D01*
G75*
G02*
X190865000Y-121772000I75000J0D01*
G01*
G37*
G36*
G01*
X191365000Y-121772000D02*
X191515000Y-121772000D01*
G75*
G02*
X191590000Y-121847000I0J-75000D01*
G01*
X191590000Y-123247000D01*
G75*
G02*
X191515000Y-123322000I-75000J0D01*
G01*
X191365000Y-123322000D01*
G75*
G02*
X191290000Y-123247000I0J75000D01*
G01*
X191290000Y-121847000D01*
G75*
G02*
X191365000Y-121772000I75000J0D01*
G01*
G37*
G36*
G01*
X191865000Y-121772000D02*
X192015000Y-121772000D01*
G75*
G02*
X192090000Y-121847000I0J-75000D01*
G01*
X192090000Y-123247000D01*
G75*
G02*
X192015000Y-123322000I-75000J0D01*
G01*
X191865000Y-123322000D01*
G75*
G02*
X191790000Y-123247000I0J75000D01*
G01*
X191790000Y-121847000D01*
G75*
G02*
X191865000Y-121772000I75000J0D01*
G01*
G37*
D13*
X207150000Y-117500000D03*
X207150000Y-118450000D03*
X207150000Y-116550000D03*
X209350000Y-116550000D03*
X209350000Y-117500000D03*
X209350000Y-118450000D03*
D14*
X186570000Y-113730000D03*
X190270000Y-113730000D03*
D15*
X228587500Y-138500000D03*
D16*
X225887500Y-137500000D03*
X225887500Y-136850000D03*
X225887500Y-136200000D03*
X225887500Y-138800000D03*
X225887500Y-138150000D03*
D15*
X228587500Y-136500000D03*
D13*
X212400000Y-141250000D03*
X212400000Y-142200000D03*
X212400000Y-140300000D03*
X214600000Y-140300000D03*
X214600000Y-141250000D03*
X214600000Y-142200000D03*
D17*
X219000000Y-106500000D03*
X217000000Y-107450000D03*
X217000000Y-105550000D03*
M02*
