M48
; DRILL file {KiCad (5.1.6-0-10_14)} date Saturday, January 09, 2021 at 09:56:44 PM
; FORMAT={-:-/ absolute / inch / decimal}
; #@! TF.CreationDate,2021-01-09T21:56:44+01:00
; #@! TF.GenerationSoftware,Kicad,Pcbnew,(5.1.6-0-10_14)
; #@! TF.FileFunction,Plated,1,2,PTH
FMAT,2
INCH
T1C0.0118
T2C0.0197
T3C0.0236
T4C0.0315
T5C0.0335
T6C0.0354
T7C0.0362
T8C0.0394
T9C0.0400
T10C0.0917
%
G90
G05
T1
X6.303Y-5.0681
X6.46Y-5.26
X6.538Y-4.832
X6.5667Y-5.3406
X6.6196Y-4.6391
X6.62Y-5.46
X6.6798Y-4.6961
X6.71Y-4.74
X6.7164Y-5.2526
X6.7276Y-5.3661
X6.7433Y-4.7953
X6.7477Y-5.3093
X6.7558Y-5.3412
X6.7725Y-4.7444
X6.83Y-4.47
X6.8477Y-4.8939
X6.9111Y-5.058
X6.93Y-4.98
X6.9343Y-4.6121
X6.9744Y-5.0826
X7.0071Y-4.7731
X7.0369Y-5.0169
X7.047Y-4.496
X7.052Y-4.688
X7.0634Y-5.117
X7.1Y-4.97
X7.105Y-4.15
X7.14Y-5.26
X7.1401Y-4.8528
X7.1856Y-4.8738
X7.2246Y-4.8714
X7.225Y-5.4251
X7.2333Y-5.3229
X7.2365Y-5.1957
X7.2374Y-5.1134
X7.245Y-4.561
X7.2497Y-4.4889
X7.2796Y-4.6832
X7.2849Y-5.3789
X7.2922Y-4.7741
X7.3321Y-4.6518
X7.36Y-5.44
X7.3696Y-5.3219
X7.4Y-4.59
X7.4051Y-4.7249
X7.4146Y-5.103
X7.4328Y-5.1998
X7.4357Y-4.9164
X7.4619Y-5.4612
X7.4662Y-5.0445
X7.48Y-5.41
X7.4848Y-5.3452
X7.5109Y-5.2207
X7.5572Y-5.3755
X7.582Y-4.9766
X7.6019Y-5.4388
X7.62Y-4.8
X7.64Y-5.24
X7.8Y-4.03
X8.1988Y-4.6596
X8.3211Y-5.5236
X8.3598Y-5.6316
X8.36Y-4.76
X8.461Y-5.482
X8.4903Y-5.5984
X8.731Y-5.445
X8.822Y-5.52
T2
X6.6748Y-4.9936
X6.6757Y-5.4045
X6.7172Y-4.8954
X6.753Y-5.496
X7.2871Y-4.3092
T4
X7.83Y-4.2631
X7.83Y-4.46
X7.93Y-4.7431
X7.93Y-4.94
X8.8Y-4.7731
X8.8Y-4.97
T5
X8.8932Y-5.315
X8.8932Y-5.5118
T6
X8.1201Y-4.3898
X8.2185Y-4.3898
X8.3169Y-4.3898
X8.4154Y-4.3898
T7
X8.5827Y-5.3642
X8.5827Y-5.4626
X8.6614Y-5.3642
X8.6614Y-5.4626
T8
X6.4059Y-4.9016
X6.5059Y-4.9016
X6.5945Y-4.311
X6.6945Y-4.311
X6.7945Y-4.311
X6.8945Y-4.311
X6.5945Y-4.0551
X6.6945Y-4.0551
X6.7945Y-4.0551
X6.8945Y-4.0551
X6.9945Y-4.0551
X6.5898Y-5.7874
X6.6898Y-5.7874
X6.7898Y-5.7874
X6.8898Y-5.7874
X7.5969Y-4.0551
X7.6969Y-4.0551
X8.1677Y-5.2559
X8.2677Y-5.2559
X8.3677Y-5.2559
X6.4059Y-4.6752
X6.5059Y-4.6752
T9
X6.0417Y-4.1213
X6.0417Y-4.2213
X6.0417Y-4.3213
X6.0417Y-4.4213
X6.0417Y-4.5213
X6.0417Y-4.6213
X6.0417Y-4.7213
X6.0417Y-4.8213
X6.0417Y-4.9213
X6.0417Y-5.0213
X6.0417Y-5.1213
X6.0417Y-5.2213
X6.0417Y-5.3213
X6.0417Y-5.4213
X6.0417Y-5.5213
X6.0417Y-5.6213
X6.0417Y-5.7213
X6.1417Y-4.1213
X6.1417Y-4.2213
X6.1417Y-4.3213
X6.1417Y-4.4213
X6.1417Y-4.5213
X6.1417Y-4.6213
X6.1417Y-4.7213
X6.1417Y-4.8213
X6.1417Y-4.9213
X6.1417Y-5.0213
X6.1417Y-5.1213
X6.1417Y-5.2213
X6.1417Y-5.3213
X6.1417Y-5.4213
X6.1417Y-5.5213
X6.1417Y-5.6213
X6.1417Y-5.7213
T10
X8.7681Y-5.1764
X8.7681Y-5.6504
T3
G00X8.9857Y-5.2756
M15
G01X9.0133Y-5.2756
M16
G05
G00X9.0133Y-5.5512
M15
G01X8.9857Y-5.5512
M16
G05
T8
G00X8.622Y-4.5079
M15
G01X8.622Y-4.4291
M16
G05
G00X8.7795Y-4.2835
M15
G01X8.7008Y-4.2835
M16
G05
G00X8.8583Y-4.5079
M15
G01X8.8583Y-4.4291
M16
G05
T0
M30
