M48
; DRILL file {KiCad (5.1.6-0-10_14)} date Thursday, January 07, 2021 at 11:57:46 PM
; FORMAT={-:-/ absolute / inch / decimal}
; #@! TF.CreationDate,2021-01-07T23:57:46+01:00
; #@! TF.GenerationSoftware,Kicad,Pcbnew,(5.1.6-0-10_14)
; #@! TF.FileFunction,Plated,1,2,PTH
FMAT,2
INCH
T1C0.0118
T2C0.0236
T3C0.0335
T4C0.0354
T5C0.0362
T6C0.0394
T7C0.0400
T8C0.0917
%
G90
G05
T1
X6.37Y-5.5104
X6.4195Y-4.5623
X6.6884Y-4.8684
X6.6968Y-5.1209
X6.7514Y-5.0136
X6.9625Y-5.0442
X6.983Y-5.5059
X6.9927Y-5.3903
X7.0407Y-5.1723
X7.0699Y-5.192
X7.1531Y-4.9934
X7.1589Y-5.2363
X7.2089Y-4.9851
X7.2142Y-5.6405
X7.2254Y-5.3823
X7.2491Y-4.9219
X7.4019Y-4.5795
X7.4047Y-4.95
X7.4056Y-5.0
X7.4108Y-4.7855
X7.4291Y-4.7273
X7.4385Y-4.8024
X7.4692Y-5.2321
X7.4951Y-4.9687
X7.514Y-5.275
X7.5731Y-5.2642
X7.6046Y-5.2544
X7.6361Y-5.2653
X7.7314Y-5.0459
X8.2011Y-4.6573
X8.4365Y-5.631
X8.4887Y-5.4725
T3
X8.8932Y-5.315
X8.8932Y-5.5118
T4
X8.1201Y-4.3898
X8.2185Y-4.3898
X8.3169Y-4.3898
X8.4154Y-4.3898
T5
X8.5827Y-5.3642
X8.5827Y-5.4626
X8.6614Y-5.3642
X8.6614Y-5.4626
T6
X6.7898Y-5.7874
X6.8898Y-5.7874
X6.4059Y-4.9016
X6.5059Y-4.9016
X8.1677Y-5.2559
X8.2677Y-5.2559
X8.3677Y-5.2559
X7.5969Y-4.0551
X7.6969Y-4.0551
X6.5945Y-4.0551
X6.6945Y-4.0551
X6.7945Y-4.0551
X6.8945Y-4.0551
X6.9945Y-4.0551
X6.4059Y-4.6752
X6.5059Y-4.6752
X6.5945Y-4.311
X6.6945Y-4.311
X6.7945Y-4.311
X6.8945Y-4.311
X6.5898Y-5.7874
X6.6898Y-5.7874
T7
X6.0417Y-4.1213
X6.0417Y-4.2213
X6.0417Y-4.3213
X6.0417Y-4.4213
X6.0417Y-4.5213
X6.0417Y-4.6213
X6.0417Y-4.7213
X6.0417Y-4.8213
X6.0417Y-4.9213
X6.0417Y-5.0213
X6.0417Y-5.1213
X6.0417Y-5.2213
X6.0417Y-5.3213
X6.0417Y-5.4213
X6.0417Y-5.5213
X6.0417Y-5.6213
X6.0417Y-5.7213
X6.1417Y-4.1213
X6.1417Y-4.2213
X6.1417Y-4.3213
X6.1417Y-4.4213
X6.1417Y-4.5213
X6.1417Y-4.6213
X6.1417Y-4.7213
X6.1417Y-4.8213
X6.1417Y-4.9213
X6.1417Y-5.0213
X6.1417Y-5.1213
X6.1417Y-5.2213
X6.1417Y-5.3213
X6.1417Y-5.4213
X6.1417Y-5.5213
X6.1417Y-5.6213
X6.1417Y-5.7213
T8
X8.7681Y-5.1764
X8.7681Y-5.6504
T2
G00X8.9857Y-5.2756
M15
G01X9.0133Y-5.2756
M16
G05
G00X9.0133Y-5.5512
M15
G01X8.9857Y-5.5512
M16
G05
T6
G00X8.622Y-4.5079
M15
G01X8.622Y-4.4291
M16
G05
G00X8.7795Y-4.2835
M15
G01X8.7008Y-4.2835
M16
G05
G00X8.8583Y-4.5079
M15
G01X8.8583Y-4.4291
M16
G05
T0
M30
