M48
; DRILL file {KiCad (5.1.6-0-10_14)} date Saturday, January 09, 2021 at 06:31:13 PM
; FORMAT={-:-/ absolute / inch / decimal}
; #@! TF.CreationDate,2021-01-09T18:31:13+01:00
; #@! TF.GenerationSoftware,Kicad,Pcbnew,(5.1.6-0-10_14)
; #@! TF.FileFunction,Plated,1,2,PTH
FMAT,2
INCH
T1C0.0118
T2C0.0197
T3C0.0236
T4C0.0335
T5C0.0354
T6C0.0362
T7C0.0394
T8C0.0400
T9C0.0917
%
G90
G05
T1
X6.5706Y-5.3591
X6.6028Y-4.5276
X6.62Y-5.46
X6.71Y-4.8
X6.7176Y-5.3595
X6.7179Y-5.1809
X6.7231Y-4.6929
X6.727Y-4.7441
X6.7514Y-5.0127
X6.7571Y-4.9246
X6.81Y-5.09
X6.82Y-4.13
X6.8859Y-5.0238
X6.8946Y-5.2638
X6.8958Y-5.2223
X6.91Y-4.97
X6.9888Y-5.3578
X7.0Y-5.13
X7.0Y-5.73
X7.0172Y-5.0087
X7.0196Y-4.9245
X7.06Y-4.22
X7.09Y-4.46
X7.1Y-5.45
X7.1046Y-4.828
X7.11Y-5.6
X7.1243Y-5.1172
X7.1463Y-4.7811
X7.1589Y-4.8738
X7.2254Y-4.8774
X7.2362Y-5.3473
X7.2414Y-5.2268
X7.2779Y-4.6815
X7.3553Y-5.3222
X7.4085Y-4.2115
X7.4258Y-5.2105
X7.4583Y-5.2077
X7.4777Y-5.4654
X7.4849Y-5.0706
X7.511Y-5.2085
X7.5226Y-4.7316
X7.5586Y-5.3457
X7.582Y-4.9766
X7.67Y-4.29
X7.8Y-5.51
X7.86Y-4.57
X7.86Y-4.92
X7.86Y-5.23
X8.2011Y-4.6573
X8.31Y-5.51
X8.3864Y-5.6449
X8.47Y-5.48
X8.4903Y-5.5984
T2
X6.6654Y-5.105
X6.6778Y-5.4072
X6.7755Y-5.496
T4
X8.8932Y-5.315
X8.8932Y-5.5118
T5
X8.1201Y-4.3898
X8.2185Y-4.3898
X8.3169Y-4.3898
X8.4154Y-4.3898
T6
X8.5827Y-5.3642
X8.5827Y-5.4626
X8.6614Y-5.3642
X8.6614Y-5.4626
T7
X6.5945Y-4.0551
X6.6945Y-4.0551
X6.7945Y-4.0551
X6.8945Y-4.0551
X6.9945Y-4.0551
X7.5969Y-4.0551
X7.6969Y-4.0551
X6.5898Y-5.7874
X6.6898Y-5.7874
X6.7898Y-5.7874
X6.8898Y-5.7874
X6.4059Y-4.9016
X6.5059Y-4.9016
X6.5945Y-4.311
X6.6945Y-4.311
X6.7945Y-4.311
X6.8945Y-4.311
X8.1677Y-5.2559
X8.2677Y-5.2559
X8.3677Y-5.2559
X6.4059Y-4.6752
X6.5059Y-4.6752
T8
X6.0417Y-4.1213
X6.0417Y-4.2213
X6.0417Y-4.3213
X6.0417Y-4.4213
X6.0417Y-4.5213
X6.0417Y-4.6213
X6.0417Y-4.7213
X6.0417Y-4.8213
X6.0417Y-4.9213
X6.0417Y-5.0213
X6.0417Y-5.1213
X6.0417Y-5.2213
X6.0417Y-5.3213
X6.0417Y-5.4213
X6.0417Y-5.5213
X6.0417Y-5.6213
X6.0417Y-5.7213
X6.1417Y-4.1213
X6.1417Y-4.2213
X6.1417Y-4.3213
X6.1417Y-4.4213
X6.1417Y-4.5213
X6.1417Y-4.6213
X6.1417Y-4.7213
X6.1417Y-4.8213
X6.1417Y-4.9213
X6.1417Y-5.0213
X6.1417Y-5.1213
X6.1417Y-5.2213
X6.1417Y-5.3213
X6.1417Y-5.4213
X6.1417Y-5.5213
X6.1417Y-5.6213
X6.1417Y-5.7213
T9
X8.7681Y-5.1764
X8.7681Y-5.6504
T3
G00X8.9857Y-5.2756
M15
G01X9.0133Y-5.2756
M16
G05
G00X9.0133Y-5.5512
M15
G01X8.9857Y-5.5512
M16
G05
T7
G00X8.622Y-4.5079
M15
G01X8.622Y-4.4291
M16
G05
G00X8.7795Y-4.2835
M15
G01X8.7008Y-4.2835
M16
G05
G00X8.8583Y-4.5079
M15
G01X8.8583Y-4.4291
M16
G05
T0
M30
