M48
; DRILL file {KiCad (5.1.6-0-10_14)} date Wednesday, January 13, 2021 at 08:02:01 AM
; FORMAT={-:-/ absolute / inch / decimal}
; #@! TF.CreationDate,2021-01-13T08:02:01+01:00
; #@! TF.GenerationSoftware,Kicad,Pcbnew,(5.1.6-0-10_14)
; #@! TF.FileFunction,Plated,1,2,PTH
FMAT,2
INCH
T1C0.0118
T2C0.0236
T3C0.0335
T4C0.0354
T5C0.0362
T6C0.0394
T7C0.0400
T8C0.0917
%
G90
G05
T1
X6.247Y-4.399
X6.25Y-5.59
X6.2607Y-4.8763
X6.264Y-5.295
X6.3147Y-5.3681
X6.3864Y-5.1105
X6.4Y-4.5102
X6.4093Y-4.2922
X6.426Y-5.073
X6.4904Y-4.427
X6.4975Y-5.3497
X6.499Y-4.62
X6.53Y-5.66
X6.5302Y-4.7971
X6.5628Y-5.0732
X6.5656Y-4.8934
X6.5703Y-4.6778
X6.5703Y-4.7541
X6.572Y-4.8466
X6.58Y-5.5
X6.586Y-4.572
X6.6275Y-5.0301
X6.669Y-5.1098
X6.67Y-4.439
X6.6775Y-5.6188
X6.7118Y-5.0285
X6.7178Y-5.1822
X6.7181Y-4.7029
X6.746Y-4.823
X6.7542Y-4.3996
X6.7634Y-5.3094
X6.7725Y-4.751
X6.773Y-4.532
X6.7768Y-4.914
X6.7952Y-5.1897
X6.817Y-4.876
X6.8969Y-5.6185
X6.9066Y-5.133
X6.9279Y-4.7037
X6.9399Y-5.16
X6.9454Y-5.1921
X6.982Y-4.9762
X6.9842Y-4.7951
X7.0227Y-4.7986
X7.0751Y-4.9748
X7.079Y-5.243
X7.0821Y-4.3123
X7.1083Y-4.9575
X7.122Y-5.483
X7.1386Y-4.7374
X7.208Y-4.8508
X7.2359Y-5.1
X7.24Y-4.7286
X7.2548Y-4.9905
X7.306Y-5.221
X7.3202Y-5.1517
X7.3485Y-5.323
X7.3769Y-5.2202
X7.3819Y-5.1885
X7.396Y-4.581
X7.4152Y-5.1889
X7.4579Y-5.0835
X7.4609Y-5.3223
X7.5112Y-5.2015
X7.5207Y-4.7529
X7.5648Y-5.1944
X7.576Y-5.337
X7.5822Y-4.996
X7.5869Y-5.2414
X7.627Y-4.57
X7.6828Y-4.9283
X7.688Y-5.281
X7.7081Y-5.0534
X7.7694Y-5.4692
X8.047Y-5.255
X8.2162Y-4.6966
X8.3036Y-5.5529
X8.4649Y-5.3964
X8.517Y-5.518
X8.601Y-5.58
X8.731Y-5.455
T3
X8.8932Y-5.315
X8.8932Y-5.5118
T4
X8.1201Y-4.3898
X8.2185Y-4.3898
X8.3169Y-4.3898
X8.4154Y-4.3898
T5
X8.5827Y-5.3642
X8.5827Y-5.4626
X8.6614Y-5.3642
X8.6614Y-5.4626
T6
X7.82Y-4.2406
X7.82Y-4.4375
X8.1677Y-5.2559
X8.2677Y-5.2559
X8.3677Y-5.2559
X6.5945Y-4.0551
X6.6945Y-4.0551
X6.7945Y-4.0551
X6.8945Y-4.0551
X6.9945Y-4.0551
X6.3759Y-4.7652
X6.4759Y-4.7652
X8.8Y-4.7731
X8.8Y-4.97
X7.84Y-4.6685
X7.84Y-4.7685
X7.84Y-4.8685
X7.84Y-4.9685
X7.84Y-5.0685
X7.84Y-5.1685
X7.84Y-5.2685
X7.84Y-5.3685
X7.94Y-4.6685
X7.94Y-4.7685
X7.94Y-4.8685
X7.94Y-4.9685
X7.94Y-5.0685
X7.94Y-5.1685
X7.94Y-5.2685
X7.94Y-5.3685
X6.3759Y-4.9916
X6.4759Y-4.9916
X6.5945Y-4.311
X6.6945Y-4.311
X6.7945Y-4.311
X6.8945Y-4.311
X6.5898Y-5.7874
X6.6898Y-5.7874
X6.7898Y-5.7874
X6.8898Y-5.7874
X7.5969Y-4.0551
X7.6969Y-4.0551
T7
X6.0417Y-4.1213
X6.0417Y-4.2213
X6.0417Y-4.3213
X6.0417Y-4.4213
X6.0417Y-4.5213
X6.0417Y-4.6213
X6.0417Y-4.7213
X6.0417Y-4.8213
X6.0417Y-4.9213
X6.0417Y-5.0213
X6.0417Y-5.1213
X6.0417Y-5.2213
X6.0417Y-5.3213
X6.0417Y-5.4213
X6.0417Y-5.5213
X6.0417Y-5.6213
X6.0417Y-5.7213
X6.1417Y-4.1213
X6.1417Y-4.2213
X6.1417Y-4.3213
X6.1417Y-4.4213
X6.1417Y-4.5213
X6.1417Y-4.6213
X6.1417Y-4.7213
X6.1417Y-4.8213
X6.1417Y-4.9213
X6.1417Y-5.0213
X6.1417Y-5.1213
X6.1417Y-5.2213
X6.1417Y-5.3213
X6.1417Y-5.4213
X6.1417Y-5.5213
X6.1417Y-5.6213
X6.1417Y-5.7213
T8
X8.7681Y-5.1764
X8.7681Y-5.6504
T2
G00X8.9857Y-5.2756
M15
G01X9.0133Y-5.2756
M16
G05
G00X9.0133Y-5.5512
M15
G01X8.9857Y-5.5512
M16
G05
T6
G00X8.622Y-4.5079
M15
G01X8.622Y-4.4291
M16
G05
G00X8.7795Y-4.2835
M15
G01X8.7008Y-4.2835
M16
G05
G00X8.8583Y-4.5079
M15
G01X8.8583Y-4.4291
M16
G05
T0
M30
