M48
; DRILL file {KiCad (5.1.6-0-10_14)} date Friday, January 08, 2021 at 08:24:04 PM
; FORMAT={-:-/ absolute / inch / decimal}
; #@! TF.CreationDate,2021-01-08T20:24:04+01:00
; #@! TF.GenerationSoftware,Kicad,Pcbnew,(5.1.6-0-10_14)
; #@! TF.FileFunction,Plated,1,2,PTH
FMAT,2
INCH
T1C0.0118
T2C0.0197
T3C0.0236
T4C0.0335
T5C0.0354
T6C0.0362
T7C0.0394
T8C0.0400
T9C0.0917
%
G90
G05
T1
X6.4225Y-5.3975
X6.4375Y-5.2
X6.495Y-5.415
X6.51Y-4.3475
X6.61Y-4.5
X6.6956Y-4.6441
X6.73Y-4.7925
X6.7323Y-5.4241
X6.7537Y-4.3998
X6.7697Y-4.7441
X6.7834Y-5.5595
X6.8993Y-4.8941
X6.9125Y-4.985
X6.9775Y-5.74
X6.9866Y-4.4712
X7.0086Y-4.3599
X7.0175Y-4.9075
X7.03Y-5.2225
X7.0473Y-5.1717
X7.0849Y-4.6316
X7.0853Y-5.2756
X7.09Y-4.3507
X7.1155Y-5.365
X7.1211Y-5.1889
X7.1498Y-4.928
X7.1726Y-4.81
X7.2203Y-4.7397
X7.2332Y-4.849
X7.24Y-4.55
X7.2634Y-5.0284
X7.325Y-4.8675
X7.3425Y-5.7325
X7.3547Y-5.3377
X7.3625Y-5.5775
X7.4604Y-5.1829
X7.4697Y-4.7786
X7.4803Y-4.3131
X7.4975Y-5.5225
X7.5001Y-5.3927
X7.5256Y-4.9739
X7.5316Y-5.3968
X7.5704Y-5.222
X7.5725Y-4.6225
X7.5826Y-5.2847
X7.6617Y-5.2907
X7.6655Y-5.4582
X7.7313Y-5.0516
X7.7575Y-5.345
X7.7875Y-4.93
X8.2011Y-4.6573
X8.2575Y-5.6575
X8.439Y-5.6313
X8.4972Y-5.5043
X8.69Y-4.76
X8.69Y-4.87
X8.69Y-4.99
X8.7325Y-5.445
X8.82Y-4.93
X8.94Y-4.76
X8.94Y-4.87
X8.94Y-4.99
T2
X6.4144Y-4.4862
X6.5497Y-5.4241
X6.6633Y-4.9382
T4
X8.8932Y-5.315
X8.8932Y-5.5118
T5
X8.1201Y-4.3898
X8.2185Y-4.3898
X8.3169Y-4.3898
X8.4154Y-4.3898
T6
X8.5827Y-5.3642
X8.5827Y-5.4626
X8.6614Y-5.3642
X8.6614Y-5.4626
T7
X7.5969Y-4.0551
X7.6969Y-4.0551
X6.5898Y-5.7874
X6.6898Y-5.7874
X6.7898Y-5.7874
X6.8898Y-5.7874
X6.4059Y-4.6752
X6.5059Y-4.6752
X6.5945Y-4.0551
X6.6945Y-4.0551
X6.7945Y-4.0551
X6.8945Y-4.0551
X6.9945Y-4.0551
X6.4059Y-4.9016
X6.5059Y-4.9016
X8.1677Y-5.2559
X8.2677Y-5.2559
X8.3677Y-5.2559
X6.5945Y-4.311
X6.6945Y-4.311
X6.7945Y-4.311
X6.8945Y-4.311
T8
X6.0417Y-4.1213
X6.0417Y-4.2213
X6.0417Y-4.3213
X6.0417Y-4.4213
X6.0417Y-4.5213
X6.0417Y-4.6213
X6.0417Y-4.7213
X6.0417Y-4.8213
X6.0417Y-4.9213
X6.0417Y-5.0213
X6.0417Y-5.1213
X6.0417Y-5.2213
X6.0417Y-5.3213
X6.0417Y-5.4213
X6.0417Y-5.5213
X6.0417Y-5.6213
X6.0417Y-5.7213
X6.1417Y-4.1213
X6.1417Y-4.2213
X6.1417Y-4.3213
X6.1417Y-4.4213
X6.1417Y-4.5213
X6.1417Y-4.6213
X6.1417Y-4.7213
X6.1417Y-4.8213
X6.1417Y-4.9213
X6.1417Y-5.0213
X6.1417Y-5.1213
X6.1417Y-5.2213
X6.1417Y-5.3213
X6.1417Y-5.4213
X6.1417Y-5.5213
X6.1417Y-5.6213
X6.1417Y-5.7213
T9
X8.7681Y-5.1764
X8.7681Y-5.6504
T3
G00X8.9857Y-5.2756
M15
G01X9.0133Y-5.2756
M16
G05
G00X9.0133Y-5.5512
M15
G01X8.9857Y-5.5512
M16
G05
T7
G00X8.622Y-4.5079
M15
G01X8.622Y-4.4291
M16
G05
G00X8.7795Y-4.2835
M15
G01X8.7008Y-4.2835
M16
G05
G00X8.8583Y-4.5079
M15
G01X8.8583Y-4.4291
M16
G05
T0
M30
