M48
; DRILL file {KiCad (5.1.6-0-10_14)} date Sunday, January 10, 2021 at 09:04:20 AM
; FORMAT={-:-/ absolute / inch / decimal}
; #@! TF.CreationDate,2021-01-10T09:04:20+01:00
; #@! TF.GenerationSoftware,Kicad,Pcbnew,(5.1.6-0-10_14)
; #@! TF.FileFunction,Plated,1,2,PTH
FMAT,2
INCH
T1C0.0118
T2C0.0197
T3C0.0236
T4C0.0335
T5C0.0354
T6C0.0362
T7C0.0394
T8C0.0400
T9C0.0917
%
G90
G05
T1
X6.3275Y-5.0681
X6.4527Y-5.244
X6.543Y-5.263
X6.5648Y-5.3268
X6.565Y-4.6685
X6.6972Y-5.263
X6.7529Y-4.7642
X6.7679Y-5.315
X6.7728Y-4.789
X6.7788Y-5.3661
X6.7818Y-4.6929
X6.784Y-4.8212
X6.844Y-5.452
X6.882Y-4.925
X6.9058Y-5.0544
X6.9146Y-5.105
X7.0013Y-4.984
X7.0038Y-5.0791
X7.122Y-5.1222
X7.124Y-5.249
X7.1298Y-4.9668
X7.1451Y-5.432
X7.2086Y-4.7798
X7.2311Y-4.7302
X7.2337Y-5.3405
X7.2343Y-4.8206
X7.276Y-4.716
X7.3061Y-5.1812
X7.3472Y-4.7732
X7.368Y-5.475
X7.3755Y-5.3899
X7.3942Y-5.1138
X7.4031Y-4.608
X7.4124Y-4.6835
X7.425Y-5.1806
X7.4552Y-4.9141
X7.4713Y-5.1345
X7.5167Y-4.7516
X7.525Y-4.614
X7.582Y-4.9766
X7.594Y-4.519
X7.638Y-5.244
X7.712Y-4.702
X7.742Y-5.449
X8.1104Y-4.6596
X8.1988Y-4.6596
X8.244Y-5.552
X8.358Y-4.762
X8.492Y-5.525
X8.5314Y-5.6292
X8.61Y-5.556
X8.733Y-5.446
T2
X6.4113Y-5.0953
X6.5481Y-5.4032
X7.0676Y-5.6436
X7.3281Y-4.2808
T4
X8.8932Y-5.315
X8.8932Y-5.5118
T5
X8.1201Y-4.3898
X8.2185Y-4.3898
X8.3169Y-4.3898
X8.4154Y-4.3898
T6
X8.5827Y-5.3642
X8.5827Y-5.4626
X8.6614Y-5.3642
X8.6614Y-5.4626
T7
X6.5898Y-5.7874
X6.6898Y-5.7874
X6.7898Y-5.7874
X6.8898Y-5.7874
X7.83Y-4.2631
X7.83Y-4.46
X6.4059Y-4.6752
X6.5059Y-4.6752
X8.8Y-4.7731
X8.8Y-4.97
X6.5945Y-4.0551
X6.6945Y-4.0551
X6.7945Y-4.0551
X6.8945Y-4.0551
X6.9945Y-4.0551
X6.5945Y-4.311
X6.6945Y-4.311
X6.7945Y-4.311
X6.8945Y-4.311
X6.4059Y-4.9016
X6.5059Y-4.9016
X7.869Y-4.6851
X7.869Y-4.882
X7.5969Y-4.0551
X7.6969Y-4.0551
X8.1677Y-5.2559
X8.2677Y-5.2559
X8.3677Y-5.2559
T8
X6.0417Y-4.1213
X6.0417Y-4.2213
X6.0417Y-4.3213
X6.0417Y-4.4213
X6.0417Y-4.5213
X6.0417Y-4.6213
X6.0417Y-4.7213
X6.0417Y-4.8213
X6.0417Y-4.9213
X6.0417Y-5.0213
X6.0417Y-5.1213
X6.0417Y-5.2213
X6.0417Y-5.3213
X6.0417Y-5.4213
X6.0417Y-5.5213
X6.0417Y-5.6213
X6.0417Y-5.7213
X6.1417Y-4.1213
X6.1417Y-4.2213
X6.1417Y-4.3213
X6.1417Y-4.4213
X6.1417Y-4.5213
X6.1417Y-4.6213
X6.1417Y-4.7213
X6.1417Y-4.8213
X6.1417Y-4.9213
X6.1417Y-5.0213
X6.1417Y-5.1213
X6.1417Y-5.2213
X6.1417Y-5.3213
X6.1417Y-5.4213
X6.1417Y-5.5213
X6.1417Y-5.6213
X6.1417Y-5.7213
T9
X8.7681Y-5.1764
X8.7681Y-5.6504
T3
G00X8.9857Y-5.2756
M15
G01X9.0133Y-5.2756
M16
G05
G00X9.0133Y-5.5512
M15
G01X8.9857Y-5.5512
M16
G05
T7
G00X8.622Y-4.5079
M15
G01X8.622Y-4.4291
M16
G05
G00X8.7795Y-4.2835
M15
G01X8.7008Y-4.2835
M16
G05
G00X8.8583Y-4.5079
M15
G01X8.8583Y-4.4291
M16
G05
T0
M30
